<?xml version="1.0" encoding="UTF-8"?>
<svg version="1.1" xmlns="http://www.w3.org/2000/svg" width="64" height="64">
<path d="M0 0 C5.82485779 3.51996782 10.54466582 8.98962934 12.5625 15.5 C13.36764105 23.33608208 13.68710392 31.11922577 8.5625 37.5 C3.75801361 42.54521222 -0.59927055 46.10562995 -7.70703125 46.8359375 C-16.22326573 46.92983204 -22.11345494 46.6177288 -28.40234375 40.62890625 C-34.7841668 33.72505269 -35.91792252 28.29832071 -35.7421875 18.9453125 C-35.04689797 11.08319245 -31.38995981 6.95041296 -25.53515625 1.9453125 C-18.47077988 -2.92213491 -7.84396301 -3.47595223 0 0 Z " fill="#F99707" transform="translate(43.4375,9.5)"/>
<path d="M0 0 C1.625 1.4375 1.625 1.4375 3 3 C3.66 3.144375 4.32 3.28875 5 3.4375 C7.71833467 4.20203163 8.40511268 5.75265877 10 8 C10.66 8 11.32 8 12 8 C12.125 10.375 12.125 10.375 12 13 C11.34 13.66 10.68 14.32 10 15 C10.66 15.66 11.32 16.32 12 17 C11.80156604 22.25850003 10.83847964 25.3635456 7 29 C2.25663876 31.64533607 -2.59210771 33.32375352 -8 32 C-10.30174386 30.59946802 -12.29478571 29.06902903 -14.3359375 27.3125 C-15.90849236 25.79357144 -15.90849236 25.79357144 -18 26 C-18 23.36 -18 20.72 -18 18 C-17.34 17.67 -16.68 17.34 -16 17 C-16.99 14.69 -17.98 12.38 -19 10 C-18.34 9.67 -17.68 9.34 -17 9 C-16.731875 8.401875 -16.46375 7.80375 -16.1875 7.1875 C-14.3452642 3.79390774 -11.66226195 1.64345624 -8.0625 0.25 C-5.29277217 -0.08572459 -2.78791063 -0.23726899 0 0 Z " fill="#F79409" transform="translate(35,15)"/>
<path d="M0 0 C4.16729296 1.06398969 5.5784137 2.54059099 8 6 C8.66 6 9.32 6 10 6 C10 7.65 10 9.3 10 11 C5.25 12.125 5.25 12.125 3 11 C3 9.68 3 8.36 3 7 C2.01 7.495 2.01 7.495 1 8 C0.34444881 10.52733235 0.34444881 10.52733235 0 13 C-0.66 13 -1.32 13 -2 13 C-2.33 15.64 -2.66 18.28 -3 21 C-5.62187494 19.95125002 -6.79371361 19.35068687 -8.25 16.875 C-8.4975 16.25625 -8.745 15.6375 -9 15 C-9.66 15 -10.32 15 -11 15 C-11 12.03 -11 9.06 -11 6 C-15.12403473 7.64856825 -15.12403473 7.64856825 -17 11 C-17.66 11 -18.32 11 -19 11 C-18.52634425 6.73709821 -16.07761678 4.78451042 -13 2 C-8.73354463 -0.84430358 -5.00246079 -0.38418899 0 0 Z " fill="#F2A318" transform="translate(37,17)"/>
<path d="M0 0 C4.16729296 1.06398969 5.5784137 2.54059099 8 6 C8.66 6 9.32 6 10 6 C10 7.65 10 9.3 10 11 C5.25 12.125 5.25 12.125 3 11 C3 10.34 3 9.68 3 9 C3.66 8.67 4.32 8.34 5 8 C1.81867968 4.48957758 -0.84324731 3.59416399 -5.4375 3.3125 C-8.70982389 3.40511294 -10.39676213 3.51955561 -12.9765625 5.57421875 C-14.58231024 7.45905106 -14.58231024 7.45905106 -15.87890625 9.46875 C-16.24886719 9.9740625 -16.61882813 10.479375 -17 11 C-17.66 11 -18.32 11 -19 11 C-18.52634425 6.73709821 -16.07761678 4.78451042 -13 2 C-8.73354463 -0.84430358 -5.00246079 -0.38418899 0 0 Z " fill="#FEDA70" transform="translate(37,17)"/>
<path d="M0 0 C1.4540625 0.0309375 1.4540625 0.0309375 2.9375 0.0625 C2.9375 1.0525 2.9375 2.0425 2.9375 3.0625 C1.9475 3.5575 1.9475 3.5575 0.9375 4.0625 C4.41202195 7.42844314 7.20428851 8.85085871 11.9453125 9.2265625 C15.43590257 8.93910214 17.37397713 7.32793882 19.9375 5.0625 C20.98099839 3.42271682 21.99357981 1.76155634 22.9375 0.0625 C23.5975 0.0625 24.2575 0.0625 24.9375 0.0625 C24.6374825 3.56270422 23.98016259 5.01154191 21.6875 7.75 C17.39478432 11.35978364 13.76068649 12.61769069 8.06640625 12.53125 C4.58227732 11.76410235 2.26218602 9.66462024 -0.3984375 7.375 C-1.97099236 5.85607144 -1.97099236 5.85607144 -4.0625 6.0625 C-4.105221 4.39638095 -4.10313832 2.72867115 -4.0625 1.0625 C-3.0625 0.0625 -3.0625 0.0625 0 0 Z " fill="#FED478" transform="translate(21.0625,34.9375)"/>
<path d="M0 0 C0.66 0.66 1.32 1.32 2 2 C1.34773438 2.02578125 0.69546875 2.0515625 0.0234375 2.078125 C-5.69246061 2.44906824 -9.59064329 3.02082443 -14 7 C-15.88568694 10.10014929 -15.88568694 10.10014929 -17 13 C-15.8553125 11.7625 -15.8553125 11.7625 -14.6875 10.5 C-12 8 -12 8 -9 8 C-9 10.64 -9 13.28 -9 16 C-9.99 15.34 -10.98 14.68 -12 14 C-12.66 14.66 -13.32 15.32 -14 16 C-14.99 16 -15.98 16 -17 16 C-17.66 13.69 -18.32 11.38 -19 9 C-18.34 9 -17.68 9 -17 9 C-16.773125 8.4225 -16.54625 7.845 -16.3125 7.25 C-14.34553901 3.87806687 -11.71586937 1.6642075 -8.0625 0.25 C-5.32395545 -0.08194479 -2.75511599 -0.17968148 0 0 Z " fill="#F7B016" transform="translate(35,15)"/>
<path d="M0 0 C2.97 0 5.94 0 9 0 C8.01 0.495 8.01 0.495 7 1 C7 1.66 7 2.32 7 3 C7.66 3.33 8.32 3.66 9 4 C7.35 5.65 5.7 7.3 4 9 C4.99 10.65 5.98 12.3 7 14 C3.64189605 12.61043975 1.81413448 11.17473533 0 8 C-0.1875 5.25 -0.1875 5.25 0 3 C1.32 2.67 2.64 2.34 4 2 C2.68 1.34 1.36 0.68 0 0 Z " fill="#FED675" transform="translate(27,24)"/>
<path d="M0 0 C0.99773438 0.02320312 1.99546875 0.04640625 3.0234375 0.0703125 C4.52777344 0.09738281 4.52777344 0.09738281 6.0625 0.125 C6.83335938 0.14820312 7.60421875 0.17140625 8.3984375 0.1953125 C8.3984375 0.5253125 8.3984375 0.8553125 8.3984375 1.1953125 C5.4284375 1.1953125 2.4584375 1.1953125 -0.6015625 1.1953125 C-0.6015625 1.8553125 -0.6015625 2.5153125 -0.6015625 3.1953125 C2.0384375 3.1953125 4.6784375 3.1953125 7.3984375 3.1953125 C7.3984375 3.5253125 7.3984375 3.8553125 7.3984375 4.1953125 C5.7484375 4.5253125 4.0984375 4.8553125 2.3984375 5.1953125 C2.7284375 5.8553125 3.0584375 6.5153125 3.3984375 7.1953125 C1.7484375 7.1953125 0.0984375 7.1953125 -1.6015625 7.1953125 C-1.6015625 7.8553125 -1.6015625 8.5153125 -1.6015625 9.1953125 C0.0484375 9.1953125 1.6984375 9.1953125 3.3984375 9.1953125 C3.3984375 9.5253125 3.3984375 9.8553125 3.3984375 10.1953125 C1.7484375 10.1953125 0.0984375 10.1953125 -1.6015625 10.1953125 C-1.9315625 10.8553125 -2.2615625 11.5153125 -2.6015625 12.1953125 C-2.6015625 9.2253125 -2.6015625 6.2553125 -2.6015625 3.1953125 C-3.2615625 2.8653125 -3.9215625 2.5353125 -4.6015625 2.1953125 C-2.6015625 0.1953125 -2.6015625 0.1953125 0 0 Z " fill="#F1B02D" transform="translate(28.6015625,19.8046875)"/>
<path d="M0 0 C0.99 0 1.98 0 3 0 C3 2.64 3 5.28 3 8 C2.01 7.34 1.02 6.68 0 6 C-0.66 6.66 -1.32 7.32 -2 8 C-2.99 8 -3.98 8 -5 8 C-5 7.34 -5 6.68 -5 6 C-4.34 6 -3.68 6 -3 6 C-2.690625 5.195625 -2.38125 4.39125 -2.0625 3.5625 C-1 1 -1 1 0 0 Z " fill="#F6A80A" transform="translate(23,23)"/>
<path d="M0 0 C1.65 0.33 3.3 0.66 5 1 C5 2.65 5 4.3 5 6 C0.25 7.125 0.25 7.125 -2 6 C-2 5.34 -2 4.68 -2 4 C-1.34 3.67 -0.68 3.34 0 3 C0 2.01 0 1.02 0 0 Z " fill="#FED87C" transform="translate(42,22)"/>
<path d="M0 0 C2.97 0 5.94 0 9 0 C8.01 0.495 8.01 0.495 7 1 C7 1.66 7 2.32 7 3 C7.66 3.33 8.32 3.66 9 4 C5.52176885 5.15941038 3.54104422 4.70820884 0 4 C1.32 3.34 2.64 2.68 4 2 C2.68 1.34 1.36 0.68 0 0 Z " fill="#FEE27E" transform="translate(27,24)"/>
</svg>
