<svg width="40" height="40" viewBox="0 0 40 40" fill="none" xmlns="http://www.w3.org/2000/svg">
<g clip-path="url(#clip0_11255_66183)">
<path d="M26.3472 22.4292C27.4141 22.4292 28.2808 21.5615 28.2808 20.4956C28.2808 19.4297 27.4141 18.562 26.3472 18.562H26.0148C25.9468 18.3703 25.8676 18.1815 25.7788 17.9974L26.0148 17.7614C26.7682 17.008 26.7682 15.7806 26.0148 15.0271C25.2607 14.271 24.034 14.2718 23.2806 15.0271L23.0446 15.2632C22.8595 15.1744 22.6726 15.096 22.48 15.0281V14.6948C22.48 13.6289 21.6133 12.7612 20.5464 12.7612C19.4795 12.7612 18.6128 13.6289 18.6128 14.6948V15.0281C18.4202 15.0961 18.2332 15.1745 18.0482 15.2632L17.8122 15.0271C17.4477 14.6618 16.9605 14.4607 16.445 14.4607C15.9295 14.4607 15.4423 14.6618 15.0779 15.0271C14.3245 15.7805 14.3245 17.0079 15.0779 17.7614L15.314 17.9974C15.2252 18.1815 15.1459 18.3703 15.0779 18.562H14.7456C13.6787 18.562 12.812 19.4297 12.812 20.4956C12.812 21.5615 13.6787 22.4292 14.7456 22.4292H15.0779C15.1459 22.6209 15.2252 22.8097 15.314 22.9938L15.0779 23.2298C14.3245 23.9832 14.3245 25.2106 15.0779 25.9641C15.8321 26.7202 17.0588 26.7194 17.8122 25.9641L18.0482 25.728C18.2332 25.8168 18.4201 25.8952 18.6128 25.9631V26.2964C18.6128 27.3623 19.4795 28.23 20.5464 28.23C21.6133 28.23 22.48 27.3623 22.48 26.2964V25.9631C22.6726 25.8951 22.8595 25.8167 23.0446 25.728L23.2806 25.9641C24.0348 26.7202 25.2615 26.7194 26.0148 25.9641C26.7682 25.2107 26.7682 23.9833 26.0148 23.2298L25.7788 22.9938C25.8676 22.8097 25.9468 22.6209 26.0148 22.4292H26.3472Z" fill="#FFE8B3"></path>
<g filter="url(#filter0_d_11255_66183)">
<path d="M20.5463 19.5288C20.0124 19.5288 19.5795 19.9615 19.5795 20.4956C19.5795 21.0295 20.0124 21.4623 20.5463 21.4623C21.0802 21.4623 21.5131 21.0295 21.5131 20.4956C21.5131 19.9615 21.0802 19.5288 20.5463 19.5288ZM34.1928 24.8225L31.2292 20.8297V20.5645C31.2292 14.7004 26.4585 9.92969 20.5945 9.92969C15.2569 9.92969 11.126 13.7197 10.19 18.3155C9.64528 20.9884 10.0616 23.6121 11.3957 25.9035C12.9866 28.6368 13.8269 31.7874 13.8269 35.0135V36.0332C13.8269 36.5676 14.2593 37 14.7937 37H24.4616C24.996 37 25.4284 36.5676 25.4284 36.0332V33.1328H30.2587C30.7931 33.1328 31.2255 32.7004 31.2255 32.166V27.08L33.7 26.3228C34.0002 26.2312 34.2372 25.9989 34.3354 25.7006C34.4336 25.4022 34.3797 25.0746 34.1928 24.8225ZM26.3471 21.4623H25.2824C25.1569 22.0784 24.9111 22.6501 24.5749 23.1571L25.3312 23.9133C25.7088 24.2909 25.7088 24.9028 25.3312 25.2804C24.9535 25.6581 24.3418 25.6581 23.9641 25.2804L23.2078 24.5242C22.7008 24.8603 22.1291 25.1061 21.5131 25.2317V26.2963C21.5131 26.8307 21.0807 27.2631 20.5463 27.2631C20.0119 27.2631 19.5795 26.8307 19.5795 26.2963V25.2317C18.9635 25.1061 18.3918 24.8603 17.8848 24.5242L17.1285 25.2804C16.7509 25.6581 16.1391 25.6581 15.7614 25.2804C15.3838 24.9028 15.3838 24.2909 15.7614 23.9133L16.5177 23.1571C16.1815 22.6501 15.9357 22.0784 15.8102 21.4623H14.7455C14.2111 21.4623 13.7787 21.0299 13.7787 20.4956C13.7787 19.9612 14.2111 19.5288 14.7455 19.5288H15.8102C15.9357 18.9127 16.1815 18.341 16.5177 17.834L15.7614 17.0778C15.3838 16.7002 15.3838 16.0883 15.7614 15.7107C16.1391 15.3331 16.7509 15.3331 17.1285 15.7107L17.8848 16.4669C18.3918 16.1308 18.9635 15.885 19.5795 15.7594V14.6948C19.5795 14.1604 20.0119 13.728 20.5463 13.728C21.0807 13.728 21.5131 14.1604 21.5131 14.6948V15.7594C22.1291 15.885 22.7008 16.1308 23.2078 16.4669L23.9641 15.7107C24.3417 15.3331 24.9535 15.3331 25.3312 15.7107C25.7088 16.0883 25.7088 16.7002 25.3312 17.0778L24.5749 17.834C24.9111 18.341 25.1569 18.9127 25.2824 19.5288H26.3471C26.8815 19.5288 27.3139 19.9612 27.3139 20.4956C27.3139 21.0299 26.8814 21.4623 26.3471 21.4623ZM20.5262 7.86719C21.0606 7.86719 21.493 7.43477 21.493 6.90039V4.9668C21.493 4.43242 21.0606 4 20.5262 4C19.9918 4 19.5594 4.43242 19.5594 4.9668V6.90039C19.5594 7.43477 19.9918 7.86719 20.5262 7.86719ZM10.4787 13.7324C10.7459 13.2698 10.5873 12.6787 10.1246 12.4116L8.45064 11.4448C7.9871 11.1767 7.39606 11.3353 7.12981 11.7988C6.86258 12.2615 7.0212 12.8525 7.48385 13.1197L9.15782 14.0865C9.61795 14.3523 10.2108 14.1963 10.4787 13.7324ZM13.4046 9.13163C13.672 9.59466 14.2644 9.75199 14.7254 9.48567C15.1881 9.21845 15.3467 8.62748 15.0795 8.16483L14.1127 6.49086C13.8445 6.02731 13.2507 5.86869 12.7918 6.13681C12.3292 6.40404 12.1706 6.99501 12.4378 7.45765L13.4046 9.13163ZM31.8946 14.0865L33.5685 13.1197C34.0312 12.8524 34.1898 12.2615 33.9226 11.7988C33.6535 11.3353 33.0616 11.1767 32.6017 11.4448L30.9278 12.4116C30.4651 12.6788 30.3065 13.2698 30.5737 13.7324C30.8493 14.2097 31.4788 14.3266 31.8946 14.0865ZM26.327 9.48567C26.7871 9.75147 27.3799 9.5955 27.6478 9.13163L28.6146 7.45765C28.8818 6.99501 28.7232 6.40397 28.2606 6.13681C27.7989 5.86869 27.2069 6.02731 26.9397 6.49086L25.9729 8.16483C25.7058 8.62748 25.8643 9.21851 26.327 9.48567Z" fill="url(#paint0_linear_11255_66183)"></path>
</g>
</g>
<defs>
<filter id="filter0_d_11255_66183" x="-35.963" y="-21.7778" width="113.31" height="118.926" filterUnits="userSpaceOnUse" color-interpolation-filters="sRGB">
<feFlood flood-opacity="0" result="BackgroundImageFix"></feFlood>
<feColorMatrix in="SourceAlpha" type="matrix" values="0 0 0 0 0 0 0 0 0 0 0 0 0 0 0 0 0 0 127 0" result="hardAlpha"></feColorMatrix>
<feOffset dy="17.1852"></feOffset>
<feGaussianBlur stdDeviation="21.4815"></feGaussianBlur>
<feComposite in2="hardAlpha" operator="out"></feComposite>
<feColorMatrix type="matrix" values="0 0 0 0 0.439216 0 0 0 0 0.564706 0 0 0 0 0.690196 0 0 0 0.3 0"></feColorMatrix>
<feBlend mode="normal" in2="BackgroundImageFix" result="effect1_dropShadow_11255_66183"></feBlend>
<feBlend mode="normal" in="SourceGraphic" in2="effect1_dropShadow_11255_66183" result="shape"></feBlend>
</filter>
<linearGradient id="paint0_linear_11255_66183" x1="7.25684" y1="4.42308" x2="22.0344" y2="36.392" gradientUnits="userSpaceOnUse">
<stop stop-color="#FFC700"></stop>
<stop offset="1" stop-color="#FB7400"></stop>
</linearGradient>
<clipPath id="clip0_11255_66183">
<rect width="40" height="40" fill="white"></rect>
</clipPath>
</defs>
</svg>