<svg width="84" height="77" viewBox="0 0 84 77" fill="none" xmlns="http://www.w3.org/2000/svg">
<path d="M40.2466 67.4669L39.2201 67.4669L38.4969 68.1534C37.1391 69.4372 36.9414 69.542 34.6731 70.2337C33.2425 70.6687 32.972 70.7106 30.0742 70.9045C27.8632 71.0512 27.7851 71.0459 28.1129 70.7682C28.3106 70.6005 29.5019 69.9927 30.017 69.7988C30.4852 69.6206 30.8077 69.4529 31.4216 69.0652C32.5662 68.342 34.1217 67.6975 35.6564 67.294L36.135 67.1682L35.3911 67.0267C34.4078 66.8433 33.1332 66.5237 32.3321 66.2669C31.9731 66.1516 31.7338 66.094 31.7962 66.1412C31.9731 66.2617 31.9471 66.4346 31.7182 66.639C31.0002 67.294 29.6424 67.9018 28.5239 68.0748C27.6707 68.2058 25.8134 68.1953 25.0435 68.0538C24.1174 67.8809 20.7671 66.8905 20.2989 66.6495C20.1116 66.5499 20.122 66.4398 20.3249 66.3717C20.585 66.2931 22.4527 65.9211 23.618 65.7167C25.9279 65.3132 27.2077 65.1822 28.0505 65.2661C28.8204 65.3394 29.7777 65.5071 30.3499 65.6591C30.6153 65.7324 30.8442 65.7901 30.865 65.7901C30.8858 65.7901 30.5372 65.6381 30.095 65.4599C25.9695 63.7726 22.1769 60.9639 19.1335 57.3272C18.9202 57.0705 18.915 57.0652 18.9254 57.2224C18.941 57.4739 18.7485 57.5368 17.9474 57.5368C17.193 57.5368 16.4907 57.4111 15.6583 57.1333C14.9456 56.8923 14.5346 56.667 13.7074 56.0748C12.1571 54.9587 11.5068 54.3089 10.638 53.0303C10.1854 52.3648 9.58708 51.6783 9.08764 51.2539C8.90556 51.1019 8.88995 50.9971 9.05643 50.9709C9.11366 50.9657 9.51944 51.06 9.96165 51.191C10.4039 51.322 11.101 51.5106 11.5016 51.6102C12.3964 51.8355 12.901 52.0242 13.7438 52.4277C14.9664 53.0146 16.1057 53.7587 16.8965 54.4766C17.3023 54.8486 17.3127 54.8539 17.1618 54.6285C16.4595 53.5962 15.2317 51.322 14.8571 50.3735C14.7895 50.2059 14.7219 50.0696 14.7063 50.0696C14.6907 50.0696 14.6334 50.1063 14.5814 50.1534C14.4617 50.2687 14.134 50.2058 13.4109 49.9386C11.9386 49.3831 10.6015 48.4032 9.86801 47.3238C9.38418 46.6163 7.90669 43.7762 7.26159 42.3089C7.00147 41.7168 6.94945 41.5282 7.04309 41.5282C7.15234 41.5282 9.45702 42.9954 10.7472 43.8915C11.949 44.7194 12.6461 45.3797 13.2132 46.2181C13.2798 46.3162 13.3414 46.4079 13.3873 46.4764C13.4347 46.5469 13.4654 46.5927 13.4681 46.5954C13.4757 46.603 13.4363 46.4547 13.3781 46.2358C13.3564 46.1544 13.3322 46.0632 13.3068 45.9666C13.0103 44.8819 12.6773 43.2574 12.5368 42.2041C12.5108 41.9788 12.5004 41.9683 12.3652 41.9893C12.2663 41.9998 12.0894 41.9369 11.8189 41.8006C10.4767 41.0985 9.6287 40.2286 8.95758 38.8819C8.43214 37.8181 8.17722 36.9168 7.78183 34.7422C7.63617 33.9614 7.46969 33.1649 7.41246 32.971C7.29801 32.5989 7.2928 32.405 7.39165 32.3736C7.4905 32.3422 8.00033 32.8033 8.97319 33.8042C10.8721 35.7535 11.5952 36.7491 12.0998 38.1168L12.2455 38.5151L12.2507 37.8076C12.2507 36.6653 12.4328 34.2129 12.5473 33.7203L12.5785 33.5893L12.4536 33.7046C12.3392 33.8042 12.3131 33.8094 12.1363 33.7518C11.8605 33.6522 11.4703 33.3483 11.0906 32.9291C10.0761 31.8339 9.6443 29.8583 9.79517 27.0549C9.8576 25.8653 10.0085 23.8898 10.0449 23.7693C10.0917 23.6121 11.8657 26.6147 12.4068 27.757C12.8646 28.7422 12.9218 29.0304 12.9322 30.419L12.9374 31.3885L13.0623 30.8906C13.286 29.9789 13.5045 29.2033 13.7438 28.4592C13.9987 27.6575 14.6698 25.9073 14.9092 25.4304C15.1641 24.9221 15.0756 25.0164 14.7479 25.6086C14.3993 26.2321 14.2901 26.3317 14.0976 26.2059C13.6241 25.8915 12.875 24.0208 12.7866 22.9413C12.771 22.7317 12.7866 22.3806 12.8178 22.1553C12.9634 21.2226 13.4473 19.4095 13.9779 17.8269C14.3109 16.8261 14.3681 16.6898 14.4669 16.6898C14.6282 16.6898 15.3618 18.4715 15.5595 19.3623C15.7415 20.1588 15.7415 23.4129 15.5595 23.9055C15.5178 24.0313 15.4918 24.1308 15.5022 24.1308C15.5126 24.1308 15.6531 23.8793 15.8144 23.5701C16.782 21.7518 17.9994 19.9544 19.4144 18.2671C20.0283 17.5335 21.7139 15.82 22.3902 15.2488C22.8324 14.8715 22.8637 14.8296 22.7544 14.8034C22.5411 14.751 22.4787 14.5256 22.4579 13.7868C22.4266 12.8383 22.5203 12.4401 22.9209 11.7798C23.3943 10.9938 24.6429 9.66278 25.5169 9.00776C26.0787 8.58331 27.2701 7.83396 27.3741 7.83396C27.4938 7.83396 27.4522 8.19029 27.2337 9.02348C26.7343 10.9623 26.4221 11.6226 25.4753 12.7492C25.2047 13.0689 25.1943 13.0898 25.3608 12.9798C25.7718 12.7125 26.1152 12.5134 27.1817 11.9265L28.3002 11.3134L28.3418 10.9885C28.4771 9.87762 29.3823 8.81387 30.7245 8.17981C31.1875 7.95973 33.9448 7.08987 34.413 7.0165C34.5899 6.98506 34.6211 6.99554 34.6211 7.07414C34.6211 7.31519 33.2061 9.15973 32.3581 10.0139C31.5621 10.8261 30.7453 11.2767 29.6476 11.5283L29.1066 11.6488L27.9412 12.4558C27.3013 12.896 26.7811 13.2628 26.7915 13.2732C26.7967 13.2785 26.9163 13.2628 27.0568 13.2313C27.6031 13.1213 28.5863 13.1056 29.1794 13.2051C30.1835 13.3623 32.0771 13.9021 32.7326 14.2112C33.4038 14.5361 33.2113 14.6147 31.2343 14.8296C30.5632 14.8977 29.736 14.9973 29.3927 15.0444C28.0401 15.2226 25.2464 15.1911 24.6585 14.9815L24.6444 14.9768C24.595 14.9601 24.556 14.9469 24.5162 14.9442C24.3684 14.9338 24.2106 15.0676 23.4652 15.6992L23.4463 15.7152C22.5775 16.4435 22.2966 16.7055 22.4214 16.6636C23.5504 16.2601 25.2255 16.0715 26.8487 16.1658C27.7383 16.213 28.014 16.2759 28.014 16.4278C28.014 16.5431 27.8944 16.6217 27.3637 16.847C27.1348 16.9414 26.3025 17.3239 25.5169 17.6907C23.0093 18.854 22.1145 19.1265 20.4341 19.2365L19.8931 19.2732L19.6954 19.5143C19.1699 20.1588 18.0254 21.7204 18.0254 21.799C18.0254 21.8147 18.1346 21.7466 18.2699 21.647C18.6653 21.364 19.5653 20.9029 20.2156 20.6566C21.844 20.033 23.696 19.6086 23.696 19.8549C23.696 19.8968 23.4567 20.1431 23.1602 20.3999C22.3278 21.1282 19.8983 23.1457 19.4457 23.4811C18.4156 24.2514 16.9433 25.1055 16.3658 25.2627L16.0329 25.357L15.8508 25.7553C15.4086 26.7352 14.6802 28.6793 14.8155 28.5326C15.5074 27.778 15.7207 27.5579 16.0641 27.2435C16.2826 27.0339 16.6572 26.7352 16.8965 26.578C17.9994 25.8339 20.1168 24.7544 20.2416 24.8749C20.2937 24.9326 20.1168 25.2051 19.711 25.6767C18.941 26.578 18.2907 27.5212 17.6716 28.6374C17.4843 28.9675 17.1826 29.4391 16.9953 29.6802C16.2878 30.5972 14.8987 31.8706 14.0976 32.3422C13.9103 32.4522 13.749 32.578 13.7334 32.6199C13.6814 32.7928 13.4421 34.5902 13.3692 35.3972C13.2964 36.1884 13.2704 37.0373 13.3276 36.7858C13.5045 35.9736 14.0403 34.7893 14.4826 34.2286C14.8987 33.7046 17.7965 30.7492 17.8485 30.7963C17.9318 30.8854 16.73 34.7317 16.2046 36.0522C15.5595 37.6766 14.6542 39.1648 13.6814 40.2129L13.3588 40.5587L13.4004 40.9779C13.5149 42.0993 13.7646 43.6661 13.9519 44.4626C13.9727 44.5465 14.0091 44.3998 14.0508 44.0487C14.2016 42.8277 14.5034 42.0365 15.497 40.302C16.4178 38.6828 17.0473 37.7343 17.1618 37.771C17.2554 37.8024 17.2554 38.274 17.167 39.7727C17.0369 42.0207 16.8861 43.8653 16.7716 44.646C16.6207 45.6469 15.9444 47.2871 15.3566 48.0679L15.112 48.4032L15.4034 49.1159C15.8508 50.2111 17.1826 52.8888 17.0161 52.3648C17.0005 52.3124 16.9589 52.0085 16.9277 51.6888C16.8392 50.8504 16.8965 49.2626 17.0369 48.4976C17.4531 46.2181 18.015 44.6408 18.3011 44.929C18.3323 44.9605 18.3844 45.2539 18.4208 45.5893C18.4884 46.1709 18.5925 46.6792 19.1387 49.0897C19.5081 50.7246 19.5965 51.3063 19.6225 52.2862C19.6538 53.3447 19.5809 53.8582 19.2376 54.8539L19.0139 55.5298L19.2844 55.8757C19.6382 56.3316 20.533 57.3901 20.9284 57.825L21.2405 58.1656L21.1156 57.6154C20.8659 56.515 20.8087 55.8705 20.8191 54.2355C20.8191 53.3919 20.8555 52.4015 20.8919 52.0085L20.9648 51.301L21.4642 52.2705C22.1821 53.6591 22.718 54.6285 23.103 55.2154C24.1591 56.8451 24.3932 57.694 24.5076 60.3246L24.544 61.1211L25.2984 61.6556C26.0527 62.1901 27.4522 63.0757 27.4834 63.039C27.4938 63.0285 27.421 62.908 27.3221 62.7665C26.7395 61.9438 26.1204 60.5027 25.803 59.2451C25.6678 58.6844 25.3972 57.1176 25.4232 57.0285C25.4493 56.9499 28.2221 59.6538 29.0129 60.529C30.6153 62.3054 31.1095 63.1543 31.3124 64.4748L31.3748 64.8678L32.1292 65.1193C32.7847 65.3342 34.4651 65.8058 34.4651 65.7691C34.4651 65.7639 34.2986 65.6171 34.0905 65.4495C33.2269 64.7211 32.0875 63.2276 31.5829 62.1482C31.432 61.8285 31.2083 61.0896 31.25 61.0477C31.2604 61.0372 31.5829 61.184 31.9679 61.3726C32.7222 61.7342 33.2373 61.949 34.387 62.384C35.8333 62.9237 36.4784 63.3429 37.2587 64.2337C37.9819 65.0512 38.4553 65.8634 38.4033 66.1831L38.3773 66.3508L38.6894 66.3874C38.8548 66.4021 39.534 66.4168 40.2466 66.4187L40.2466 67.4669Z" fill="url(#paint0_radial_4243_171403)"></path>
<path d="M20.6367 12.0617C20.6249 12.4639 20.6106 12.9552 20.6006 13.3623C20.5642 14.7667 20.4914 15.5842 20.3613 16.1029C20.2364 16.5955 19.8775 17.3658 19.4977 17.9422C19.0659 18.6025 17.8121 19.8339 17.5728 19.8339C17.1774 19.8339 16.9277 17.4287 17.1982 16.192C17.4115 15.2016 17.9162 14.2217 18.7954 13.0741C19.1283 12.6444 20.2416 11.2872 20.5382 10.9571L20.6838 10.7947L20.6526 11.5021C20.6489 11.6408 20.6432 11.8376 20.6367 12.0617Z" fill="url(#paint1_radial_4243_171403)"></path>
<path d="M20.1636 60.1307C19.0035 59.8373 18.0306 59.7167 14.7999 59.4862C14.2797 59.4495 13.5721 59.4547 13.5045 59.4966C13.4629 59.5228 13.4473 59.5805 13.4629 59.6224C13.5721 59.9106 17.1462 62.2582 18.3063 62.8084C19.3156 63.2853 20.689 63.6521 21.6983 63.7255C22.8845 63.804 24.5128 63.4477 24.7105 63.0652C24.825 62.8399 24.6585 62.5621 24.1591 62.1639C22.8324 61.1106 21.6567 60.508 20.1636 60.1307Z" fill="url(#paint2_radial_4243_171403)"></path>
<path d="M43.5713 67.4669L44.5978 67.4669L45.3209 68.1534C46.6788 69.4372 46.8765 69.542 49.1447 70.2337C50.5754 70.6687 50.8459 70.7106 53.7437 70.9045C55.9547 71.0512 56.0327 71.0459 55.705 70.7682C55.5073 70.6005 54.3159 69.9927 53.8009 69.7988C53.3327 69.6206 53.0101 69.4529 52.3962 69.0652C51.2517 68.342 49.6962 67.6975 48.1615 67.294L47.6828 67.1682L48.4268 67.0267C49.41 66.8433 50.6846 66.5237 51.4858 66.2669C51.8448 66.1516 52.0841 66.094 52.0217 66.1412C51.8448 66.2617 51.8708 66.4346 52.0997 66.639C52.8176 67.294 54.1755 67.9018 55.294 68.0748C56.1472 68.2058 58.0044 68.1953 58.7744 68.0538C59.7004 67.8809 63.0508 66.8905 63.519 66.6495C63.7063 66.5499 63.6959 66.4398 63.493 66.3717C63.2329 66.2931 61.3652 65.9211 60.1999 65.7167C57.89 65.3132 56.6102 65.1822 55.7674 65.2661C54.9974 65.3394 54.0402 65.5071 53.4679 65.6591C53.2026 65.7324 52.9737 65.7901 52.9529 65.7901C52.9321 65.7901 53.2806 65.6381 53.7229 65.4599C57.8484 63.7726 61.6409 60.9639 64.6844 57.3272C64.8977 57.0705 64.9029 57.0652 64.8924 57.2224C64.8768 57.4739 65.0693 57.5368 65.8705 57.5368C66.6249 57.5368 67.3272 57.4111 68.1596 57.1333C68.8723 56.8923 69.2833 56.667 70.1105 56.0748C71.6608 54.9587 72.3111 54.3089 73.1799 53.0303C73.6325 52.3648 74.2308 51.6783 74.7302 51.2539C74.9123 51.1019 74.9279 50.9971 74.7614 50.9709C74.7042 50.9657 74.2984 51.06 73.8562 51.191C73.414 51.322 72.7169 51.5106 72.3163 51.6102C71.4215 51.8355 70.9169 52.0242 70.0741 52.4277C68.8515 53.0146 67.7122 53.7587 66.9214 54.4766C66.5156 54.8486 66.5052 54.8539 66.6561 54.6285C67.3584 53.5962 68.5862 51.322 68.9607 50.3735C69.0284 50.2059 69.096 50.0696 69.1116 50.0696C69.1272 50.0696 69.1844 50.1063 69.2365 50.1534C69.3561 50.2687 69.6839 50.2058 70.407 49.9386C71.8793 49.3831 73.2163 48.4032 73.9499 47.3238C74.4337 46.6163 75.9112 43.7762 76.5563 42.3089C76.8164 41.7168 76.8684 41.5282 76.7748 41.5282C76.6655 41.5282 74.3609 42.9954 73.0707 43.8915C71.8689 44.7194 71.1718 45.3797 70.6047 46.2181C70.5381 46.3162 70.4765 46.4079 70.4305 46.4764C70.3832 46.5469 70.3524 46.5927 70.3498 46.5954C70.3422 46.603 70.3816 46.4547 70.4398 46.2358C70.4614 46.1544 70.4857 46.0632 70.5111 45.9666C70.8076 44.8819 71.1406 43.2574 71.281 42.2041C71.307 41.9788 71.3174 41.9683 71.4527 41.9893C71.5515 41.9998 71.7284 41.9369 71.999 41.8006C73.3412 41.0985 74.1892 40.2286 74.8603 38.8819C75.3857 37.8181 75.6407 36.9168 76.036 34.7422C76.1817 33.9614 76.3482 33.1649 76.4054 32.971C76.5199 32.5989 76.5251 32.405 76.4262 32.3736C76.3274 32.3422 75.8175 32.8033 74.8447 33.8042C72.9458 35.7535 72.2227 36.7491 71.718 38.1168L71.5724 38.5151L71.5672 37.8076C71.5672 36.6653 71.3851 34.2129 71.2706 33.7203L71.2394 33.5893L71.3643 33.7046C71.4787 33.8042 71.5047 33.8094 71.6816 33.7518C71.9573 33.6522 72.3475 33.3483 72.7273 32.9291C73.7418 31.8339 74.1736 29.8583 74.0227 27.0549C73.9603 25.8653 73.8094 23.8898 73.773 23.7693C73.7262 23.6121 71.9521 26.6147 71.4111 27.757C70.9533 28.7422 70.896 29.0304 70.8856 30.419L70.8804 31.3885L70.7556 30.8906C70.5319 29.9789 70.3134 29.2033 70.0741 28.4592C69.8191 27.6575 69.148 25.9073 68.9087 25.4304C68.6538 24.9221 68.7422 25.0164 69.07 25.6086C69.4186 26.2321 69.5278 26.3317 69.7203 26.2059C70.1937 25.8915 70.9429 24.0208 71.0313 22.9413C71.0469 22.7317 71.0313 22.3806 71.0001 22.1553C70.8544 21.2226 70.3706 19.4095 69.84 17.8269C69.507 16.8261 69.4498 16.6898 69.3509 16.6898C69.1897 16.6898 68.4561 18.4715 68.2584 19.3623C68.0763 20.1588 68.0763 23.4129 68.2584 23.9055C68.3 24.0313 68.326 24.1308 68.3156 24.1308C68.3052 24.1308 68.1648 23.8793 68.0035 23.5701C67.0359 21.7518 65.8185 19.9544 64.4034 18.2671C63.7895 17.5335 62.104 15.82 61.4276 15.2488C60.9854 14.8715 60.9542 14.8296 61.0635 14.8034C61.2768 14.751 61.3392 14.5256 61.36 13.7868C61.3912 12.8383 61.2976 12.4401 60.897 11.7798C60.4236 10.9938 59.175 9.66278 58.301 9.00776C57.7391 8.58331 56.5478 7.83396 56.4437 7.83396C56.3241 7.83396 56.3657 8.19029 56.5842 9.02348C57.0836 10.9623 57.3958 11.6226 58.3426 12.7492C58.6131 13.0689 58.6235 13.0898 58.4571 12.9798C58.0461 12.7125 57.7027 12.5134 56.6362 11.9265L55.5177 11.3134L55.4761 10.9885C55.3408 9.87762 54.4356 8.81387 53.0934 8.17981C52.6303 7.95973 49.8731 7.08987 49.4049 7.0165C49.228 6.98506 49.1968 6.99554 49.1968 7.07414C49.1968 7.31519 50.6118 9.15973 51.4598 10.0139C52.2558 10.8261 53.0726 11.2767 54.1703 11.5283L54.7113 11.6488L55.8767 12.4558C56.5166 12.896 57.0368 13.2628 57.0264 13.2732C57.0212 13.2785 56.9015 13.2628 56.7611 13.2313C56.2148 13.1213 55.2316 13.1056 54.6385 13.2051C53.6344 13.3623 51.7407 13.9021 51.0852 14.2112C50.4141 14.5361 50.6066 14.6147 52.5835 14.8296C53.2546 14.8977 54.0818 14.9973 54.4252 15.0444C55.7778 15.2226 58.5715 15.1911 59.1594 14.9815L59.1734 14.9768C59.2229 14.9601 59.2619 14.9469 59.3016 14.9442C59.4495 14.9338 59.6073 15.0676 60.3527 15.6992L60.3715 15.7152C61.2404 16.4435 61.5213 16.7055 61.3964 16.6636C60.2675 16.2601 58.5923 16.0715 56.9692 16.1658C56.0796 16.213 55.8038 16.2759 55.8038 16.4278C55.8038 16.5431 55.9235 16.6217 56.4541 16.847C56.683 16.9414 57.5154 17.3239 58.301 17.6907C60.8086 18.854 61.7034 19.1265 63.3838 19.2365L63.9248 19.2732L64.1225 19.5143C64.6479 20.1588 65.7925 21.7204 65.7925 21.799C65.7925 21.8147 65.6832 21.7466 65.548 21.647C65.1526 21.364 64.2526 20.9029 63.6023 20.6566C61.9739 20.033 60.1218 19.6086 60.1218 19.8549C60.1218 19.8968 60.3611 20.1431 60.6577 20.3999C61.4901 21.1282 63.9196 23.1457 64.3722 23.4811C65.4023 24.2514 66.8746 25.1055 67.452 25.2627L67.785 25.357L67.9671 25.7553C68.4093 26.7352 69.1376 28.6793 69.0024 28.5326C68.3104 27.778 68.0971 27.5579 67.7538 27.2435C67.5353 27.0339 67.1607 26.7352 66.9214 26.578C65.8185 25.8339 63.7011 24.7544 63.5762 24.8749C63.5242 24.9326 63.7011 25.2051 64.1069 25.6767C64.8768 26.578 65.5271 27.5212 66.1462 28.6374C66.3335 28.9675 66.6353 29.4391 66.8226 29.6802C67.5301 30.5972 68.9191 31.8706 69.7203 32.3422C69.9076 32.4522 70.0689 32.578 70.0845 32.6199C70.1365 32.7928 70.3758 34.5902 70.4486 35.3972C70.5215 36.1884 70.5475 37.0373 70.4903 36.7858C70.3134 35.9736 69.7775 34.7893 69.3353 34.2286C68.9191 33.7046 66.0214 30.7492 65.9694 30.7963C65.8861 30.8854 67.0879 34.7317 67.6133 36.0522C68.2584 37.6766 69.1636 39.1648 70.1365 40.2129L70.459 40.5587L70.4174 40.9779C70.303 42.0993 70.0533 43.6661 69.866 44.4626C69.8452 44.5465 69.8087 44.3998 69.7671 44.0487C69.6162 42.8277 69.3145 42.0365 68.3208 40.302C67.4 38.6828 66.7705 37.7343 66.6561 37.771C66.5624 37.8024 66.5624 38.274 66.6509 39.7727C66.7809 42.0207 66.9318 43.8653 67.0463 44.646C67.1971 45.6469 67.8734 47.2871 68.4613 48.0679L68.7058 48.4032L68.4145 49.1159C67.9671 50.2111 66.6353 52.8888 66.8017 52.3648C66.8173 52.3124 66.859 52.0085 66.8902 51.6888C66.9786 50.8504 66.9214 49.2626 66.7809 48.4976C66.3647 46.2181 65.8029 44.6408 65.5167 44.929C65.4855 44.9605 65.4335 45.2539 65.3971 45.5893C65.3295 46.1709 65.2254 46.6792 64.6792 49.0897C64.3098 50.7246 64.2213 51.3063 64.1953 52.2862C64.1641 53.3447 64.2369 53.8582 64.5803 54.8539L64.804 55.5298L64.5335 55.8757C64.1797 56.3316 63.2849 57.3901 62.8895 57.825L62.5774 58.1656L62.7022 57.6154C62.9519 56.515 63.0092 55.8705 62.9988 54.2355C62.9988 53.3919 62.9624 52.4015 62.9259 52.0085L62.8531 51.301L62.3537 52.2705C61.6357 53.6591 61.0999 54.6285 60.7149 55.2154C59.6588 56.8451 59.4247 57.694 59.3103 60.3246L59.2738 61.1211L58.5195 61.6556C57.7651 62.1901 56.3657 63.0757 56.3345 63.039C56.3241 63.0285 56.3969 62.908 56.4957 62.7665C57.0784 61.9438 57.6975 60.5027 58.0148 59.2451C58.1501 58.6844 58.4206 57.1176 58.3946 57.0285C58.3686 56.9499 55.5957 59.6538 54.805 60.529C53.2026 62.3054 52.7084 63.1543 52.5055 64.4748L52.4431 64.8678L51.6887 65.1193C51.0332 65.3342 49.3528 65.8058 49.3528 65.7691C49.3528 65.7639 49.5193 65.6171 49.7274 65.4495C50.591 64.7211 51.7303 63.2276 52.235 62.1482C52.3858 61.8285 52.6095 61.0896 52.5679 61.0477C52.5575 61.0372 52.235 61.184 51.85 61.3726C51.0956 61.7342 50.5806 61.949 49.4309 62.384C47.9846 62.9237 47.3395 63.3429 46.5591 64.2337C45.836 65.0512 45.3626 65.8634 45.4146 66.1831L45.4406 66.3508L45.1285 66.3874C44.9631 66.4021 44.2839 66.4168 43.5713 66.4187L43.5713 67.4669Z" fill="url(#paint3_radial_4243_171403)"></path>
<path d="M63.1812 12.0617C63.1929 12.4639 63.2072 12.9552 63.2173 13.3623C63.2537 14.7667 63.3265 15.5842 63.4566 16.1029C63.5814 16.5955 63.9404 17.3658 64.3202 17.9422C64.752 18.6025 66.0058 19.8339 66.2451 19.8339C66.6405 19.8339 66.8902 17.4287 66.6196 16.192C66.4063 15.2016 65.9017 14.2217 65.0225 13.0741C64.6896 12.6444 63.5762 11.2872 63.2797 10.9571L63.134 10.7947L63.1652 11.5021C63.169 11.6408 63.1747 11.8376 63.1812 12.0617Z" fill="url(#paint4_radial_4243_171403)"></path>
<path d="M63.6543 60.1307C64.8144 59.8373 65.7873 59.7167 69.018 59.4862C69.5382 59.4495 70.2457 59.4547 70.3134 59.4966C70.355 59.5228 70.3706 59.5805 70.355 59.6224C70.2457 59.9106 66.6717 62.2582 65.5115 62.8084C64.5023 63.2853 63.1288 63.6521 62.1196 63.7255C60.9334 63.804 59.3051 63.4477 59.1074 63.0652C58.9929 62.8399 59.1594 62.5621 59.6588 62.1639C60.9854 61.1106 62.1612 60.508 63.6543 60.1307Z" fill="url(#paint5_radial_4243_171403)"></path>
<defs>
<radialGradient id="paint0_radial_4243_171403" cx="0" cy="0" r="1" gradientUnits="userSpaceOnUse" gradientTransform="translate(23.4154 63.6427) rotate(180) scale(16.1039 124.345)">
<stop stop-color="#FCAF17"></stop>
<stop offset="0.454568" stop-color="#FFCD4C"></stop>
<stop offset="1" stop-color="#FCAF17"></stop>
</radialGradient>
<radialGradient id="paint1_radial_4243_171403" cx="0" cy="0" r="1" gradientUnits="userSpaceOnUse" gradientTransform="translate(23.4154 63.6427) rotate(180) scale(16.1039 124.345)">
<stop stop-color="#FCAF17"></stop>
<stop offset="0.454568" stop-color="#FFCD4C"></stop>
<stop offset="1" stop-color="#FCAF17"></stop>
</radialGradient>
<radialGradient id="paint2_radial_4243_171403" cx="0" cy="0" r="1" gradientUnits="userSpaceOnUse" gradientTransform="translate(23.4154 63.6427) rotate(180) scale(16.1039 124.345)">
<stop stop-color="#FCAF17"></stop>
<stop offset="0.454568" stop-color="#FFCD4C"></stop>
<stop offset="1" stop-color="#FCAF17"></stop>
</radialGradient>
<radialGradient id="paint3_radial_4243_171403" cx="0" cy="0" r="1" gradientUnits="userSpaceOnUse" gradientTransform="translate(60.4025 63.6427) scale(16.1039 124.345)">
<stop stop-color="#FCAF17"></stop>
<stop offset="0.454568" stop-color="#FFCD4C"></stop>
<stop offset="1" stop-color="#FCAF17"></stop>
</radialGradient>
<radialGradient id="paint4_radial_4243_171403" cx="0" cy="0" r="1" gradientUnits="userSpaceOnUse" gradientTransform="translate(60.4025 63.6427) scale(16.1039 124.345)">
<stop stop-color="#FCAF17"></stop>
<stop offset="0.454568" stop-color="#FFCD4C"></stop>
<stop offset="1" stop-color="#FCAF17"></stop>
</radialGradient>
<radialGradient id="paint5_radial_4243_171403" cx="0" cy="0" r="1" gradientUnits="userSpaceOnUse" gradientTransform="translate(60.4025 63.6427) scale(16.1039 124.345)">
<stop stop-color="#FCAF17"></stop>
<stop offset="0.454568" stop-color="#FFCD4C"></stop>
<stop offset="1" stop-color="#FCAF17"></stop>
</radialGradient>
</defs>
</svg>