<?xml version="1.0" encoding="UTF-8"?>
<svg version="1.1" xmlns="http://www.w3.org/2000/svg" width="64" height="64">
<path d="M0 0 C1.22589844 0.00644531 2.45179687 0.01289063 3.71484375 0.01953125 C9.12960722 0.29121717 9.12960722 0.29121717 11.0625 1.1875 C12.109375 3.25390625 12.109375 3.25390625 12.8125 5.75 C13.05484375 6.57628906 13.2971875 7.40257812 13.546875 8.25390625 C13.71703125 8.89199219 13.8871875 9.53007812 14.0625 10.1875 C14.81917969 10.22359375 15.57585938 10.2596875 16.35546875 10.296875 C19.0625 11.1875 19.0625 11.1875 20.86328125 13.953125 C21.36214844 15.10296875 21.86101563 16.2528125 22.375 17.4375 C22.88675781 18.57703125 23.39851563 19.7165625 23.92578125 20.890625 C24.98144647 23.95241692 25.40630742 25.99417009 25.0625 29.1875 C24.0625 30.1875 24.0625 30.1875 22.27183533 30.30775452 C21.49240067 30.30553391 20.712966 30.30331329 19.90991211 30.30102539 C19.02907455 30.30094986 18.148237 30.30087433 17.2407074 30.30079651 C16.28342239 30.29563522 15.32613739 30.29047394 14.33984375 30.28515625 C13.36463272 30.2837413 12.38942169 30.28232635 11.38465881 30.28086853 C8.25640857 30.27525133 5.12822877 30.26269593 2 30.25 C-0.11523334 30.24498722 -2.23046781 30.24042393 -4.34570312 30.23632812 C-9.54299296 30.22527631 -14.74024145 30.20852146 -19.9375 30.1875 C-21.12973181 25.33819758 -20.38033024 23.02136014 -18.3125 18.4375 C-18.03688232 17.82422852 -17.76126465 17.21095703 -17.47729492 16.57910156 C-9.86468962 -0.11386315 -9.86468962 -0.11386315 0 0 Z " fill="#F97F02" transform="translate(29.9375,16.8125)"/>
<path d="M0 0 C1.11568359 0.00966797 1.11568359 0.00966797 2.25390625 0.01953125 C2.97449219 0.07496094 3.69507812 0.13039063 4.4375 0.1875 C5.48164062 0.23970703 5.48164062 0.23970703 6.546875 0.29296875 C8.4375 1.1875 8.4375 1.1875 9.88671875 4.09375 C10.29535156 5.2796875 10.70398438 6.465625 11.125 7.6875 C12.26370337 11.73137324 12.26370337 11.73137324 14.4375 15.1875 C14.4375 16.8375 14.4375 18.4875 14.4375 20.1875 C4.8675 20.1875 -4.7025 20.1875 -14.5625 20.1875 C-15.9300917 16.08472489 -14.46754002 13.45735143 -12.9375 9.625 C-12.56431641 8.59729492 -12.56431641 8.59729492 -12.18359375 7.54882812 C-10.94155825 4.4004844 -10.08399888 2.49989546 -7.13671875 0.734375 C-4.66807833 0.20992939 -2.51969229 -0.04820281 0 0 Z " fill="#FBDF97" transform="translate(32.5625,16.8125)"/>
<path d="M0 0 C0.33 0.66 0.66 1.32 1 2 C0.08953645 4.55281099 -0.87478147 7.01179689 -1.9375 9.5 C-4.12053954 14.0989163 -4.12053954 14.0989163 -5 19 C-1.7 19.33 1.6 19.66 5 20 C4.44661458 22.01822917 3.89322917 24.03645833 3.33984375 26.0546875 C2.78867393 28.07273593 2.78867393 28.07273593 4 30 C-1.61 30 -7.22 30 -13 30 C-14.10784008 24.46079962 -13.61515002 23.2158498 -11.375 18.25 C-11.09938232 17.63672852 -10.82376465 17.02345703 -10.53979492 16.39160156 C-4.40334793 2.93556529 -4.40334793 2.93556529 0 0 Z " fill="#D96401" transform="translate(23,17)"/>
<path d="M0 0 C5 1 5 1 6.36328125 2.99609375 C6.67652344 3.80175781 6.98976563 4.60742188 7.3125 5.4375 C7.80169922 6.64212891 7.80169922 6.64212891 8.30078125 7.87109375 C9 10 9 10 9 12 C7.989375 11.95875 6.97875 11.9175 5.9375 11.875 C1.95605082 12.00139521 -1.20106028 12.88266479 -5 14 C-5.66 13.67 -6.32 13.34 -7 13 C-12.87380886 13.38715481 -12.87380886 13.38715481 -18 16 C-17.125 11.125 -17.125 11.125 -16 10 C-14.58429877 9.91348389 -13.164405 9.89295096 -11.74609375 9.90234375 C-10.46508789 9.90717773 -10.46508789 9.90717773 -9.15820312 9.91210938 C-8.26037109 9.92048828 -7.36253906 9.92886719 -6.4375 9.9375 C-5.53580078 9.94201172 -4.63410156 9.94652344 -3.70507812 9.95117188 C-1.47002411 9.96299756 0.76499602 9.98093362 3 10 C1.515 5.05 1.515 5.05 0 0 Z " fill="#E68D0A" transform="translate(44,27)"/>
<path d="M0 0 C0.33 0.66 0.66 1.32 1 2 C0.09239638 4.59732225 -0.87067892 7.09450975 -1.9375 9.625 C-2.22818359 10.33140625 -2.51886719 11.0378125 -2.81835938 11.765625 C-3.53867488 13.51327573 -4.26845694 15.25701915 -5 17 C-5.99 17 -6.98 17 -8 17 C-8 17.66 -8 18.32 -8 19 C-8.66 19 -9.32 19 -10 19 C-9.45508731 14.50779292 -8.31847613 11.20043959 -6.125 7.25 C-5.61195312 6.30640625 -5.09890625 5.3628125 -4.5703125 4.390625 C-3 2 -3 2 0 0 Z " fill="#D3870B" transform="translate(23,17)"/>
<path d="M0 0 C2.25 -0.0625 2.25 -0.0625 5 1 C7.02398511 4.31079993 9 8.06322849 9 12 C7.02 12 5.04 12 3 12 C2 10 2 10 2.0625 7.6875 C1.99312271 4.70427633 1.23174528 2.69444281 0 0 Z " fill="#FA9205" transform="translate(44,27)"/>
<path d="M0 0 C0.66 0 1.32 0 2 0 C2.33 0.66 2.66 1.32 3 2 C5.35599235 2.46751788 5.35599235 2.46751788 8.0625 2.625 C9.44115234 2.73714844 9.44115234 2.73714844 10.84765625 2.8515625 C11.55792969 2.90054688 12.26820312 2.94953125 13 3 C12.67 3.99 12.34 4.98 12 6 C10.78763672 5.83951172 10.78763672 5.83951172 9.55078125 5.67578125 C7.94783203 5.49595703 7.94783203 5.49595703 6.3125 5.3125 C5.25675781 5.18488281 4.20101563 5.05726562 3.11328125 4.92578125 C-0.46926591 5.01118702 -2.13063834 5.929162 -5 8 C-4.25 3.25 -4.25 3.25 -2 1 C-1.34 1.33 -0.68 1.66 0 2 C0 1.34 0 0.68 0 0 Z " fill="#CF7708" transform="translate(15,34)"/>
<path d="M0 0 C1.125 1.6875 1.125 1.6875 2 4 C1.34 5.65 0.68 7.3 0 9 C12.87 9.495 12.87 9.495 26 10 C26.33 8.68 26.66 7.36 27 6 C27 7.65 27 9.3 27 11 C17.43 11 7.86 11 -2 11 C-3.13643966 7.59068103 -2.86747764 6.99664544 -1.5625 3.8125 C-1.13130859 2.73935547 -1.13130859 2.73935547 -0.69140625 1.64453125 C-0.46324219 1.10183594 -0.23507813 0.55914063 0 0 Z " fill="#FED777" transform="translate(20,26)"/>
<path d="M0 0 C0.33 0.66 0.66 1.32 1 2 C0.22265625 3.9453125 0.22265625 3.9453125 -0.9375 6.125 C-1.31777344 6.84945313 -1.69804687 7.57390625 -2.08984375 8.3203125 C-2.39019531 8.87460937 -2.69054687 9.42890625 -3 10 C-3.99 10 -4.98 10 -6 10 C-5.58578031 5.16743695 -3.53586014 3.17320782 0 0 Z " fill="#241B15" transform="translate(23,17)"/>
<path d="M0 0 C2.475 0.495 2.475 0.495 5 1 C5.6875 2.75 5.6875 2.75 6 5 C4.5625 7.25 4.5625 7.25 3 9 C2.01 6.03 1.02 3.06 0 0 Z " fill="#F8AC17" transform="translate(44,27)"/>
<path d="M0 0 C3.63 0 7.26 0 11 0 C10.67 0.99 10.34 1.98 10 3 C6.37 2.67 2.74 2.34 -1 2 C-0.67 1.34 -0.34 0.68 0 0 Z " fill="#C16C07" transform="translate(17,37)"/>
<path d="M0 0 C2.75 0.25 2.75 0.25 5 1 C2.64031256 3.09749995 1.45383006 3.96905704 -1.75 4.1875 C-2.86375 4.0946875 -2.86375 4.0946875 -4 4 C-2.3125 1.9375 -2.3125 1.9375 0 0 Z M-6 4 C-4 5 -4 5 -4 5 Z " fill="#D66B09" transform="translate(15,38)"/>
</svg>
