<?xml version="1.0" encoding="UTF-8"?>
<svg version="1.1" xmlns="http://www.w3.org/2000/svg" width="64" height="64">
<path d="M0 0 C2 1.6875 2 1.6875 3 4 C3.1875 7.75 3.1875 7.75 3 11 C6.5167343 9.99521877 8.97986419 9.01499475 11.9375 6.8125 C15 5 15 5 18.5625 4.9375 C22.79716189 6.24639549 24.48165527 7.33695312 27 11 C27.70219181 14.15129983 27.72861344 16.85216226 27 20 C24.625 23.0625 24.625 23.0625 22 25 C21.34 25 20.68 25 20 25 C20.0825 26.03125 20.165 27.0625 20.25 28.125 C19.87979944 33.86310865 17.56542486 36.54911843 13.4375 40.375 C7.80681338 43.03677913 2.31922835 42.96237982 -3.640625 41.234375 C-9.38275263 38.90047796 -9.38275263 38.90047796 -11.234375 36.19921875 C-12.16060824 33.53866102 -12.23043311 31.37657031 -12.1875 28.5625 C-12.18105469 27.63566406 -12.17460937 26.70882812 -12.16796875 25.75390625 C-12.00505262 23.08283944 -11.5913295 20.60658042 -11 18 C-11.78375 17.87625 -12.5675 17.7525 -13.375 17.625 C-16 17 -16 17 -18 15 C-18.70609073 11.283733 -18.79562426 7.5616592 -17.0546875 4.14453125 C-12.08252111 -2.18794481 -7.12203025 -2.97522043 0 0 Z " fill="#ED9F1C" transform="translate(27,11)"/>
<path d="M0 0 C2 1.6875 2 1.6875 3 4 C3.1875 7.75 3.1875 7.75 3 11 C4.65 11 6.3 11 8 11 C8 11.33 8 11.66 8 12 C5.69 12 3.38 12 1 12 C1 12.66 1 13.32 1 14 C-0.98 14.66 -2.96 15.32 -5 16 C-4.01 16.66 -3.02 17.32 -2 18 C-2.32613281 18.5671875 -2.65226562 19.134375 -2.98828125 19.71875 C-4.08943661 22.20166401 -4.23828102 23.80398946 -4.1875 26.5 C-4.18105469 27.2528125 -4.17460937 28.005625 -4.16796875 28.78125 C-4.00303563 30.95990143 -3.59600906 32.90204811 -3 35 C-6 34 -6 34 -7.2109375 31.80078125 C-8.09772354 28.65312982 -8.01469309 26.42195265 -7.625 23.1875 C-7.51414062 22.21167969 -7.40328125 21.23585938 -7.2890625 20.23046875 C-7.19367187 19.49441406 -7.09828125 18.75835938 -7 18 C-7.99 18.33 -8.98 18.66 -10 19 C-13.39651226 18.0988845 -15.49679597 17.50320403 -18 15 C-18.70609073 11.283733 -18.79562426 7.5616592 -17.0546875 4.14453125 C-12.08252111 -2.18794481 -7.12203025 -2.97522043 0 0 Z " fill="#F9C74C" transform="translate(27,11)"/>
<path d="M0 0 C0.66 0 1.32 0 2 0 C1.96519531 0.72445313 1.93039063 1.44890625 1.89453125 2.1953125 C1.73368051 7.93998168 1.76533816 12.01322966 5 17 C7.12364481 17.22609337 7.12364481 17.22609337 8.625 15.5 C9.07875 15.005 9.5325 14.51 10 14 C10 14.66 10 15.32 10 16 C11.65 16 13.3 16 15 16 C15 15.34 15 14.68 15 14 C15.99 13.34 16.98 12.68 18 12 C17.67 10.35 17.34 8.7 17 7 C18.32 6.34 19.64 5.68 21 5 C21.02698189 6.62490954 21.04638757 8.24994633 21.0625 9.875 C21.07410156 10.77992187 21.08570312 11.68484375 21.09765625 12.6171875 C21 15 21 15 20 17 C24.17950077 13.54110281 25.32762134 10.01713599 27 5 C29.35620437 8.53430656 29.48991613 9.83571287 29 14 C26.52250045 18.76442222 23.86718829 21.69914735 19 24 C11.92786512 25.07619444 4.93413123 24.22562312 -1 20 C-4.05043877 15.52148958 -3.51475248 10.19362207 -3 5 C-1.625 1.8125 -1.625 1.8125 0 0 Z " fill="#F88D11" transform="translate(18,29)"/>
<path d="M0 0 C3.02519989 2.05971056 4.66926776 3.51573824 5.48046875 7.15625 C5.75056038 11.5361142 5.42612671 13.44718697 2.6875 17 C0 19 0 19 -3 20 C-3.39180108 18.42074025 -3.76280736 16.83631206 -4.125 15.25 C-4.33382812 14.36828125 -4.54265625 13.4865625 -4.7578125 12.578125 C-5.03258532 9.65312405 -4.50006185 8.46676837 -3 6 C-3 5.67 -3 5.34 -3 5 C-8.57830016 4.87530901 -8.57830016 4.87530901 -14 6 C-12.98949988 3.33595424 -12.02766415 2.02292172 -9.8125 0.1875 C-6.01834462 -1.41447672 -3.94131902 -1.12609115 0 0 Z " fill="#E0AA27" transform="translate(49,17)"/>
<path d="M0 0 C1.03125 0.33 2.0625 0.66 3.125 1 C5.74616909 1.76561531 7.51115099 2 10.3125 2 C11.199375 2 12.08625 2 13 2 C15 4 15 4 15.1875 7 C15 10 15 10 14 12 C7.25 12.125 7.25 12.125 5 11 C5.33 10.34 5.66 9.68 6 9 C5.67 8.67 5.34 8.34 5 8 C4.34 7.01 3.68 6.02 3 5 C3 7.64 3 10.28 3 13 C0.66118993 10.87380903 -0.94038762 9.00223508 -2 6 C-1.47368421 1.47368421 -1.47368421 1.47368421 0 0 Z " fill="#FBD065" transform="translate(13,12)"/>
<path d="M0 0 C2.64 0 5.28 0 8 0 C7.2884375 0.8353125 7.2884375 0.8353125 6.5625 1.6875 C4.87604004 4.18346074 4.41046893 6.0446237 4 9 C3.01 9 2.02 9 1 9 C1.99 10.485 1.99 10.485 3 12 C3.66 11.01 4.32 10.02 5 9 C5.99 9 6.98 9 8 9 C7.67 9.9075 7.34 10.815 7 11.75 C5.80394277 15.07045807 5.80394277 15.07045807 6 19 C4.125 19.625 4.125 19.625 2 20 C1.34 19.34 0.68 18.68 0 18 C0 17.34 0 16.68 0 16 C0.66 16 1.32 16 2 16 C1.6390625 15.52949219 1.278125 15.05898438 0.90625 14.57421875 C0.4421875 13.95160156 -0.021875 13.32898437 -0.5 12.6875 C-0.9640625 12.07261719 -1.428125 11.45773438 -1.90625 10.82421875 C-3 9 -3 9 -3 6 C-4.32 5.67 -5.64 5.34 -7 5 C-6.34 4.01 -5.68 3.02 -5 2 C-2.375 1.8125 -2.375 1.8125 0 2 C0 1.34 0 0.68 0 0 Z " fill="#FCB812" transform="translate(28,23)"/>
<path d="M0 0 C0.66 0 1.32 0 2 0 C1.96519531 0.72445313 1.93039063 1.44890625 1.89453125 2.1953125 C1.62189354 10.0563622 1.62189354 10.0563622 5 17 C6.66392045 17.67349161 8.33032028 18.3409159 10 19 C10.8125 21.625 10.8125 21.625 11 24 C6.64917679 23.34078436 2.92126804 21.99762711 -1 20 C-4.03050302 15.49412052 -3.51628729 10.20910759 -3 5 C-1.625 1.8125 -1.625 1.8125 0 0 Z " fill="#F88F16" transform="translate(18,29)"/>
<path d="M0 0 C2.64 0 5.28 0 8 0 C7.125 4.75 7.125 4.75 6 7 C6.15855469 7.62132812 6.31710938 8.24265625 6.48046875 8.8828125 C7.48375002 12.97137227 5.93093778 17.19892037 4.04296875 20.8515625 C3 22.5 3 22.5 1 25 C0.34 25 -0.32 25 -1 25 C-0.505 23.9790625 -0.505 23.9790625 0 22.9375 C1.1933772 19.43195448 1.27277977 16.6825269 1 13 C0.34 12.01 -0.32 11.02 -1 10 C-0.8125 7.9375 -0.8125 7.9375 0 6 C0.99 5.34 1.98 4.68 3 4 C1.68 3.67 0.36 3.34 -1 3 C-0.67 2.01 -0.34 1.02 0 0 Z " fill="#F4AF2B" transform="translate(39,21)"/>
<path d="M0 0 C0.78375 0.144375 1.5675 0.28875 2.375 0.4375 C3.035 1.4275 3.695 2.4175 4.375 3.4375 C2.395 4.4275 2.395 4.4275 0.375 5.4375 C0.375 6.7575 0.375 8.0775 0.375 9.4375 C-2.625 10.4375 -2.625 10.4375 -5.625 9.4375 C-6.285 10.7575 -6.945 12.0775 -7.625 13.4375 C-8.945 11.7875 -10.265 10.1375 -11.625 8.4375 C-9.15 8.9325 -9.15 8.9325 -6.625 9.4375 C-6.7075 8.695 -6.79 7.9525 -6.875 7.1875 C-6.625 4.4375 -6.625 4.4375 -4.9375 2.125 C-2.625 0.4375 -2.625 0.4375 0 0 Z " fill="#F7B01F" transform="translate(38.625,22.5625)"/>
<path d="M0 0 C0.33 0.66 0.66 1.32 1 2 C2.65 2 4.3 2 6 2 C6 1.34 6 0.68 6 0 C6.99 0 7.98 0 9 0 C10.15837626 4.05431692 9.83691257 6.21812119 8 10 C6.02 10 4.04 10 2 10 C1.71125 9.21625 1.4225 8.4325 1.125 7.625 C0.15087746 4.90328368 0.15087746 4.90328368 -2 3 C-1.34 2.01 -0.68 1.02 0 0 Z " fill="#FB8D0D" transform="translate(27,43)"/>
<path d="M0 0 C0.99 0.33 1.98 0.66 3 1 C3.66666667 3.33333333 4.33333333 5.66666667 5 8 C5.99 8.33 6.98 8.66 8 9 C7.67 10.32 7.34 11.64 7 13 C2.49377432 13.36536965 2.49377432 13.36536965 0.34765625 11.77734375 C-1.37883712 9.50037423 -1.34207279 8.20163465 -1.25 5.375 C-1.23453125 4.57835937 -1.2190625 3.78171875 -1.203125 2.9609375 C-1 1 -1 1 0 0 Z " fill="#E0B654" transform="translate(10,16)"/>
<path d="M0 0 C0.66 0 1.32 0 2 0 C1.98839844 0.74765625 1.97679687 1.4953125 1.96484375 2.265625 C1.95582031 3.25046875 1.94679688 4.2353125 1.9375 5.25 C1.92589844 6.22453125 1.91429687 7.1990625 1.90234375 8.203125 C1.98804423 10.65758678 2.29293934 12.66168914 3 15 C1.68 15.33 0.36 15.66 -1 16 C-3.46906319 12.29640522 -3.55995385 9.29576538 -3 5 C-1.625 2 -1.625 2 0 0 Z " fill="#F1AF26" transform="translate(18,29)"/>
<path d="M0 0 C0.125 5.75 0.125 5.75 -1 8 C-0.34 8 0.32 8 1 8 C0.1875 9.9375 0.1875 9.9375 -1 12 C-1.99 12.33 -2.98 12.66 -4 13 C-4.66 9.7 -5.32 6.4 -6 3 C-2 0 -2 0 0 0 Z " fill="#E3A317" transform="translate(50,24)"/>
<path d="M0 0 C1.9375 0.375 1.9375 0.375 4 1 C4.33 1.66 4.66 2.32 5 3 C5.66 2.01 6.32 1.02 7 0 C7.99 0 8.98 0 10 0 C9.67 0.9075 9.34 1.815 9 2.75 C7.80394277 6.07045807 7.80394277 6.07045807 8 10 C6.125 10.625 6.125 10.625 4 11 C3.34 10.34 2.68 9.68 2 9 C2 8.34 2 7.68 2 7 C2.66 7 3.32 7 4 7 C2.02 3.535 2.02 3.535 0 0 Z " fill="#FEDB82" transform="translate(26,32)"/>
<path d="M0 0 C2.125 0.9375 2.125 0.9375 4 2 C4.125 7.75 4.125 7.75 3 10 C1.35 10 -0.3 10 -2 10 C-1.814375 8.88625 -1.62875 7.7725 -1.4375 6.625 C-0.68319343 3.17431139 -0.68319343 3.17431139 -2 1 C-1.34 0.67 -0.68 0.34 0 0 Z " fill="#F5D069" transform="translate(24,14)"/>
<path d="M0 0 C0.66 0 1.32 0 2 0 C1.67 0.99 1.34 1.98 1 3 C0.90752619 4.47686111 0.87000929 5.95775501 0.875 7.4375 C0.87242188 8.19933594 0.86984375 8.96117187 0.8671875 9.74609375 C0.99723985 11.95315859 1.39143801 13.87969276 2 16 C-1 15 -1 15 -2.1875 12.8125 C-3.10205483 9.64673327 -3.34885638 7.27925001 -3 4 C-1.625 1.625 -1.625 1.625 0 0 Z " fill="#FEDB82" transform="translate(22,30)"/>
<path d="M0 0 C3.53586014 3.17320782 5.58578031 5.16743695 6 10 C5.01 10 4.02 10 3 10 C2.67 7.69 2.34 5.38 2 3 C1.01 3 0.02 3 -1 3 C-0.81535634 7.34184202 -0.81535634 7.34184202 1 11 C1.04063832 12.66617115 1.042721 14.33388095 1 16 C-1 15 -1 15 -1.61328125 13.2265625 C-2.0161737 10.9068787 -2.16781908 8.72883859 -2.1875 6.375 C-2.20167969 5.59898438 -2.21585938 4.82296875 -2.23046875 4.0234375 C-2 2 -2 2 0 0 Z " fill="#F2AF2E" transform="translate(24,31)"/>
<path d="M0 0 C3.875 1.875 3.875 1.875 5 3 C5.203125 5.14453125 5.203125 5.14453125 5.25 7.8125 C5.27578125 8.68519531 5.3015625 9.55789062 5.328125 10.45703125 C4.93935277 13.47001602 4.08864858 14.82516931 2 17 C1.34 17 0.68 17 0 17 C0.33 16.319375 0.66 15.63875 1 14.9375 C2.82225868 9.58461513 2.45397487 5.06132317 0 0 Z " fill="#FEE081" transform="translate(38,29)"/>
<path d="M0 0 C1.9375 0.375 1.9375 0.375 4 1 C5 3 5 3 4.0625 6.125 C3.711875 7.07375 3.36125 8.0225 3 9 C1.68 8.67 0.36 8.34 -1 8 C-0.67 7.34 -0.34 6.68 0 6 C-0.33 5.67 -0.66 5.34 -1 5 C-0.71395102 3.32457024 -0.38218767 1.65614657 0 0 Z " fill="#FBE18D" transform="translate(19,15)"/>
<path d="M0 0 C0.99 0.99 1.98 1.98 3 3 C3.66 2.34 4.32 1.68 5 1 C5.08131463 2.43655854 5.13933559 3.8744483 5.1875 5.3125 C5.22230469 6.11300781 5.25710937 6.91351563 5.29296875 7.73828125 C4.93801608 10.47851584 4.10633718 11.29171079 2 13 C2 12.34 2 11.68 2 11 C1.34 11 0.68 11 0 11 C0 7.37 0 3.74 0 0 Z " fill="#EBC04C" transform="translate(49,21)"/>
<path d="M0 0 C1.32 1.32 2.64 2.64 4 4 C3.67 4.66 3.34 5.32 3 6 C3.33 6.33 3.66 6.66 4 7 C4.66 7.66 5.32 8.32 6 9 C4.68 9.99 3.36 10.98 2 12 C2 11.01 2 10.02 2 9 C1.34 9 0.68 9 0 9 C-1.36623674 6.26752652 -1.128426 4.01801098 -1 1 C-0.67 0.67 -0.34 0.34 0 0 Z " fill="#EFC258" transform="translate(16,16)"/>
<path d="M0 0 C2.64 0 5.28 0 8 0 C7.6875 2.375 7.6875 2.375 7 5 C6.01 5.66 5.02 6.32 4 7 C3.34 5.68 2.68 4.36 2 3 C1.01 3 0.02 3 -1 3 C-0.67 2.01 -0.34 1.02 0 0 Z " fill="#F7D365" transform="translate(39,21)"/>
<path d="M0 0 C0.66 0 1.32 0 2 0 C2.05395478 1.62463842 2.09277195 3.24978541 2.125 4.875 C2.14820313 5.77992187 2.17140625 6.68484375 2.1953125 7.6171875 C2 10 2 10 0 12 C-0.38897161 10.37828761 -0.76078298 8.75245075 -1.125 7.125 C-1.43824219 5.76761719 -1.43824219 5.76761719 -1.7578125 4.3828125 C-1.83773437 3.59648438 -1.91765625 2.81015625 -2 2 C-1.34 1.34 -0.68 0.68 0 0 Z " fill="#F29915" transform="translate(37,34)"/>
<path d="M0 0 C2.66666667 1.33333333 5.33333333 2.66666667 8 4 C7.67 5.32 7.34 6.64 7 8 C4.625 7.75 4.625 7.75 2 7 C0.2058242 4.43689172 0 3.16880694 0 0 Z " fill="#AA6A1A" transform="translate(15,42)"/>
<path d="M0 0 C6.75 0.75 6.75 0.75 9 3 C9.26991906 5.68839385 9.08737357 8.29141936 9 11 C7.58622659 8.36095629 6.62759865 5.92879371 6 3 C3.03 2.505 3.03 2.505 0 2 C0 1.34 0 0.68 0 0 Z " fill="#E1A918" transform="translate(44,17)"/>
<path d="M0 0 C0.99 0.33 1.98 0.66 3 1 C3.33 3.97 3.66 6.94 4 10 C3.01 9.67 2.02 9.34 1 9 C-0.4783226 6.04335481 -0.06032783 3.25770263 0 0 Z " fill="#ECA213" transform="translate(15,35)"/>
<path d="M0 0 C0.33 0.66 0.66 1.32 1 2 C-0.98 2.66 -2.96 3.32 -5 4 C-4.01 4.66 -3.02 5.32 -2 6 C-2.33 6.66 -2.66 7.32 -3 8 C-5.0625 8.625 -5.0625 8.625 -7 9 C-7 8.01 -7 7.02 -7 6 C-7.99 6.33 -8.98 6.66 -10 7 C-10 6.34 -10 5.68 -10 5 C-6.8000997 1.98295115 -4.38462134 0.50109958 0 0 Z " fill="#FAC230" transform="translate(27,23)"/>
<path d="M0 0 C0.72315978 2.16947934 1.38196903 4.36076468 2 6.5625 C2.83726246 9.82416864 2.83726246 9.82416864 4 12 C0.125 11.125 0.125 11.125 -1 10 C-1.0979057 8.50261876 -1.12974864 7.00057108 -1.125 5.5 C-1.12757812 4.6853125 -1.13015625 3.870625 -1.1328125 3.03125 C-1 1 -1 1 0 0 Z " fill="#3E2D20" transform="translate(10,16)"/>
<path d="M0 0 C1.20628008 2.33214148 2.1654738 4.49642139 3 7 C1.02 7.66 -0.96 8.32 -3 9 C-2.690625 8.443125 -2.38125 7.88625 -2.0625 7.3125 C-0.94238179 4.87459567 -0.43962636 2.63775814 0 0 Z " fill="#F7A830" transform="translate(34,35)"/>
<path d="M0 0 C2.5 2.25 2.5 2.25 5 5 C5 6.32 5 7.64 5 9 C4.01 9 3.02 9 2 9 C1.34 6.03 0.68 3.06 0 0 Z " fill="#E6A62C" transform="translate(25,32)"/>
<path d="M0 0 C0.99 0.99 1.98 1.98 3 3 C1.02 3.99 -0.96 4.98 -3 6 C-3.33 4.68 -3.66 3.36 -4 2 C-2.68 2 -1.36 2 0 2 C0 1.34 0 0.68 0 0 Z " fill="#EFAF13" transform="translate(40,23)"/>
<path d="M0 0 C0.33 1.98 0.66 3.96 1 6 C-1 6 -3 6 -5 6 C-5 4 -5 4 -3.0625 1.875 C-1 0 -1 0 0 0 Z " fill="#F69425" transform="translate(43,42)"/>
</svg>
