<svg width="40" height="40" viewBox="0 0 40 40" fill="none" xmlns="http://www.w3.org/2000/svg">
<g clip-path="url(#clip0_11255_66198)">
<g filter="url(#filter0_d_11255_66198)">
<path fill-rule="evenodd" clip-rule="evenodd" d="M20.7107 4C19.079 4 17.4839 4.48386 16.1272 5.39038C14.7705 6.2969 13.7131 7.58538 13.0887 9.09288C12.4642 10.6004 12.3009 12.2592 12.6192 13.8595C12.9375 15.4599 13.7233 16.9299 14.877 18.0837C16.0308 19.2375 17.5008 20.0232 19.1012 20.3415C20.7015 20.6599 22.3603 20.4965 23.8678 19.8721C25.3753 19.2476 26.6638 18.1902 27.5703 16.8335C28.4769 15.4768 28.9607 13.8817 28.9607 12.25C28.9582 10.0628 28.0882 7.96579 26.5416 6.41915C24.9949 4.87251 22.898 4.00251 20.7107 4ZM21.7421 22.5112V28.238C22.3878 27.7164 23.1085 27.2884 23.8833 26.9701C24.022 26.1718 24.3239 25.408 24.7727 24.7278C25.3437 23.8623 26.1324 23.1624 27.0595 22.6983C27.9867 22.2341 29.0196 22.0222 30.0546 22.0836C31.0896 22.1451 32.0902 22.4778 32.9559 23.0484C33.1079 23.1481 33.2308 23.2862 33.3122 23.4487C33.3935 23.6113 33.4304 23.7925 33.4191 23.9739C33.3571 25.0089 33.0239 26.0093 32.4529 26.8747C31.8819 27.7401 31.0933 28.44 30.1661 28.9041C29.239 29.3682 28.2061 29.5802 27.1711 29.5188C26.3246 29.4686 25.5012 29.2369 24.7557 28.842C23.534 29.3233 22.4836 30.1608 21.7421 31.2469V32.8753H19.6796V30.9416V29.1847C18.9381 28.0983 17.8875 27.2605 16.6656 26.7792C15.9201 27.1728 15.0971 27.4036 14.2512 27.4532C13.2166 27.514 12.1842 27.3018 11.2575 26.8379C10.3307 26.3741 9.54216 25.6748 8.97079 24.8101C8.39943 23.9455 8.06532 22.9459 8.00196 21.9115C7.99076 21.73 8.02771 21.5489 8.10906 21.3864C8.19041 21.2238 8.31327 21.0857 8.4652 20.9859C9.33216 20.4181 10.3326 20.0871 11.3671 20.0257C12.4016 19.9643 13.4342 20.1747 14.3622 20.6359C15.2877 21.1021 16.0749 21.8026 16.6456 22.6675C17.094 23.3471 17.3963 24.1096 17.5367 24.9067C18.3122 25.2251 19.0334 25.6535 19.6796 26.1755V22.5112C20.0199 22.5421 20.3602 22.5628 20.7109 22.5628C21.0615 22.5628 21.4018 22.5421 21.7421 22.5112ZM16.5858 37H24.8359C25.1094 37 25.3717 36.8913 25.5651 36.698C25.7585 36.5046 25.8671 36.2423 25.8671 35.9687C25.8671 35.6952 25.7585 35.4329 25.5651 35.2395C25.3717 35.0461 25.1094 34.9375 24.8359 34.9375H16.5858C16.3123 34.9375 16.05 35.0461 15.8566 35.2395C15.6632 35.4329 15.5546 35.6952 15.5546 35.9687C15.5546 36.2423 15.6632 36.5046 15.8566 36.698C16.05 36.8913 16.3123 37 16.5858 37Z" fill="url(#paint0_linear_11255_66198)"></path>
</g>
<path d="M20.3947 17L18 13.042V12.1092H18.7982C19.1175 12.1092 19.3969 12.0672 19.6364 11.9832C19.8847 11.8908 20.0887 11.7605 20.2483 11.5924C20.4169 11.4244 20.5322 11.2227 20.5942 10.9874H18V10.0546H20.5809C20.5277 9.83613 20.4346 9.64286 20.3016 9.47479C20.1774 9.30672 20.0089 9.17647 19.796 9.08403C19.592 8.98319 19.3437 8.93277 19.051 8.93277H18V8L24 8V8.93277H21.9113C22.0621 9.09244 22.1863 9.26471 22.2838 9.44958C22.3902 9.63445 22.4612 9.83613 22.4967 10.0546H24V10.9874H22.5233C22.4346 11.6092 22.1818 12.0966 21.765 12.4496C21.3481 12.7941 20.8115 13.0294 20.1552 13.1555L22.7627 17H20.3947Z" fill="#FFE8B3"></path>
</g>
<defs>
<filter id="filter0_d_11255_66198" x="-34.963" y="-21.7778" width="111.347" height="118.926" filterUnits="userSpaceOnUse" color-interpolation-filters="sRGB">
<feFlood flood-opacity="0" result="BackgroundImageFix"></feFlood>
<feColorMatrix in="SourceAlpha" type="matrix" values="0 0 0 0 0 0 0 0 0 0 0 0 0 0 0 0 0 0 127 0" result="hardAlpha"></feColorMatrix>
<feOffset dy="17.1852"></feOffset>
<feGaussianBlur stdDeviation="21.4815"></feGaussianBlur>
<feComposite in2="hardAlpha" operator="out"></feComposite>
<feColorMatrix type="matrix" values="0 0 0 0 0.439216 0 0 0 0 0.564706 0 0 0 0 0.690196 0 0 0 0.3 0"></feColorMatrix>
<feBlend mode="normal" in2="BackgroundImageFix" result="effect1_dropShadow_11255_66198"></feBlend>
<feBlend mode="normal" in="SourceGraphic" in2="effect1_dropShadow_11255_66198" result="shape"></feBlend>
</filter>
<linearGradient id="paint0_linear_11255_66198" x1="8.23843" y1="4.42308" x2="23.7198" y2="35.5142" gradientUnits="userSpaceOnUse">
<stop stop-color="#FFC700"></stop>
<stop offset="1" stop-color="#FB7400"></stop>
</linearGradient>
<clipPath id="clip0_11255_66198">
<rect width="40" height="40" fill="white"></rect>
</clipPath>
</defs>
</svg>