<?xml version="1.0" encoding="UTF-8"?>
<svg version="1.1" xmlns="http://www.w3.org/2000/svg" width="64" height="64">
<path d="M0 0 C0.79953138 3.28696233 1.09658936 4.71023192 0 8 C0.99 8.33 1.98 8.66 3 9 C3.69643985 10.98982813 4.354876 12.99294757 5 15 C6.23364246 17.32262326 7.54054706 19.58786891 8.87890625 21.8515625 C11.46486408 26.80723082 11.98198511 32.5867552 10.43359375 37.96875 C9.13653948 41.17403595 7.7923084 43.9057687 5 46 C0.87840578 47.37386474 -2.99454405 47.26361748 -7.3125 47.3125 C-8.57610352 47.35600586 -8.57610352 47.35600586 -9.86523438 47.40039062 C-15.3984121 47.4566309 -18.68995542 46.81555884 -23 43 C-26.46890265 38.21772669 -25.55062114 31.59798159 -25 26 C-24.01156835 22.76428508 -22.65458099 19.94080636 -21 17 C-19.89542427 14.88842591 -19.04361117 13.2118257 -18.5625 10.875 C-18 9 -18 9 -15 7 C-15.33 5.02 -15.66 3.04 -16 1 C-10.44860651 -1.48351814 -5.83475015 -0.85330338 0 0 Z " fill="#F78909" transform="translate(39,9)"/>
<path d="M0 0 C3 1.5625 3 1.5625 5 4 C6.15782531 7.98002449 6.45343333 10.02835714 4.6875 13.8125 C1.52565675 17.9111857 1.52565675 17.9111857 -0.98828125 18.3359375 C-5.14337707 18.40577104 -7.39068719 18.38082051 -11 16.125 C-13.56718101 13.39737017 -13.94813481 12.4581425 -14.375 8.6875 C-14 5 -14 5 -12.0625 2.0625 C-7.94945012 -0.70751318 -4.82356003 -0.92626334 0 0 Z " fill="#FDE594" transform="translate(36,30)"/>
<path d="M0 0 C1.16552619 4.19589427 1.08954032 4.82091936 -1 9 C-5.29 9 -9.58 9 -14 9 C-16.25 3.375 -16.25 3.375 -15 0 C-9.96266834 -1.5111995 -5.11828973 -0.64599773 0 0 Z " fill="#FAB106" transform="translate(39,9)"/>
<path d="M0 0 C5.94 0.33 11.88 0.66 18 1 C19 6 19 6 18 9 C17.34 8.67 16.68 8.34 16 8 C11.27277258 7.43347569 7.99299648 7.35151251 3.9375 10 C2.9784375 10.99 2.9784375 10.99 2 12 C2.33 9.03 2.66 6.06 3 3 C2.01 2.67 1.02 2.34 0 2 C0 1.34 0 0.68 0 0 Z " fill="#F4A00F" transform="translate(20,23)"/>
<path d="M0 0 C0.78552246 0.01047363 1.57104492 0.02094727 2.38037109 0.03173828 C3.23115234 0.03818359 4.08193359 0.04462891 4.95849609 0.05126953 C6.29267578 0.07640625 6.29267578 0.07640625 7.65380859 0.10205078 C8.99958984 0.11558594 8.99958984 0.11558594 10.37255859 0.12939453 C12.59157445 0.15300108 14.81005937 0.18592768 17.02880859 0.22705078 C17.41099626 1.88319735 17.74275961 3.55162102 18.02880859 5.22705078 C17.02880859 6.22705078 17.02880859 6.22705078 15.0793457 6.34057617 C14.24669189 6.33533936 13.41403809 6.33010254 12.55615234 6.32470703 C11.65703125 6.32148438 10.75791016 6.31826172 9.83154297 6.31494141 C8.88601562 6.3065625 7.94048828 6.29818359 6.96630859 6.28955078 C6.01691406 6.28503906 5.06751953 6.28052734 4.08935547 6.27587891 C1.73577794 6.26405188 -0.61767618 6.24757103 -2.97119141 6.22705078 C-3.59619141 4.35205078 -3.59619141 4.35205078 -3.97119141 2.22705078 C-1.97119141 0.22705078 -1.97119141 0.22705078 0 0 Z " fill="#C36405" transform="translate(23.97119140625,16.77294921875)"/>
<path d="M0 0 C0.33 1.32 0.66 2.64 1 4 C1.66 4 2.32 4 3 4 C4.625 5.5 4.625 5.5 6 7 C6 5.68 6 4.36 6 3 C7.65 2.34 9.3 1.68 11 1 C10.34 4.3 9.68 7.6 9 11 C6.36 11 3.72 11 1 11 C0.12132271 7.26562152 -0.08912219 3.83225427 0 0 Z " fill="#FEE79F" transform="translate(27,37)"/>
<path d="M0 0 C4.8211661 3.76286134 4.8211661 3.76286134 5.28515625 6.97265625 C4.97537659 11.014903 4.41435825 12.59574805 1.4375 15.5 C0.2309375 16.2425 0.2309375 16.2425 -1 17 C-0.91621094 16.16855469 -0.83242188 15.33710937 -0.74609375 14.48046875 C-0.64425781 13.39378906 -0.54242188 12.30710937 -0.4375 11.1875 C-0.33308594 10.10855469 -0.22867188 9.02960937 -0.12109375 7.91796875 C0.17577609 4.93517546 0.17577609 4.93517546 -1 2 C-0.67 1.34 -0.34 0.68 0 0 Z " fill="#F8CE6D" transform="translate(37,31)"/>
<path d="M0 0 C0 0.99 0 1.98 0 3 C-5.61 3 -11.22 3 -17 3 C-17.33 2.34 -17.66 1.68 -18 1 C-11.69661213 -0.3792223 -6.3503077 -1.41117949 0 0 Z " fill="#C25500" transform="translate(41,20)"/>
<path d="M0 0 C0.99 0 1.98 0 3 0 C4.35242344 2.70484687 4 4.9993319 4 8 C4.33 8.99 4.66 9.98 5 11 C4.34 11.66 3.68 12.32 3 13 C0.06738563 9.97574144 -0.95628972 8.52452339 -1.3125 4.25 C-1 1 -1 1 0 0 Z " fill="#F7D069" transform="translate(23,34)"/>
<path d="M0 0 C1.65 0 3.3 0 5 0 C4.67 3.3 4.34 6.6 4 10 C3.01 9.67 2.02 9.34 1 9 C-0.1470009 5.97608852 0 3.23905718 0 0 Z " fill="#EFBC3D" transform="translate(29,34)"/>
<path d="M0 0 C0 3 0 3 -2.25 5.75 C-5 8 -5 8 -7.3125 7.8125 C-8.1478125 7.4103125 -8.1478125 7.4103125 -9 7 C-9 6.34 -9 5.68 -9 5 C-7.88625 4.54625 -6.7725 4.0925 -5.625 3.625 C-2.03800992 2.27534014 -2.03800992 2.27534014 0 0 Z " fill="#E67C0D" transform="translate(40,44)"/>
<path d="M0 0 C1.32 0.66 2.64 1.32 4 2 C3.1875 4.4375 3.1875 4.4375 2 7 C1.01 7.33 0.02 7.66 -1 8 C-1.125 2.25 -1.125 2.25 0 0 Z " fill="#FEE380" transform="translate(27,34)"/>
<path d="M0 0 C4.29 0 8.58 0 13 0 C12.67 0.99 12.34 1.98 12 3 C11.34 2.67 10.68 2.34 10 2 C8.29636178 1.77377919 6.58671299 1.59111527 4.875 1.4375 C3.96492188 1.35371094 3.05484375 1.26992188 2.1171875 1.18359375 C1.41851563 1.12300781 0.71984375 1.06242187 0 1 C0 0.67 0 0.34 0 0 Z " fill="#FB9611" transform="translate(28,23)"/>
</svg>
