<svg width="38" height="38" viewBox="0 0 48 48" fill="none" xmlns="http://www.w3.org/2000/svg">
<path d="M31.2662 7.875H13.175C9.21167 7.875 6 11.0867 6 15.0329V25.915C6 29.8783 9.21167 33.0729 13.1579 33.0729H19.3079C20.2475 33.0729 21.0163 33.8417 21.0163 34.7813V36.1821C21.0163 37.1217 20.2475 37.8904 19.3079 37.8904H15.4642C14.7979 37.8904 14.2513 38.4371 14.2513 39.1033C14.2513 39.7696 14.7979 40.3162 15.4642 40.3162H29.0112C29.6775 40.3162 30.2242 39.7696 30.2242 39.1033C30.2242 38.4371 29.6775 37.8904 29.0112 37.8904H25.1675C24.2279 37.8904 23.4592 37.1217 23.4592 36.1821V34.7813C23.4592 33.8417 24.2279 33.0729 25.1675 33.0729H31.2662C35.2296 33.0729 38.4242 29.8613 38.4242 25.915V15.0329C38.4242 11.0867 35.2125 7.875 31.2662 7.875Z" fill="url(#paint0_linear_4243_171569)"></path>
<path d="M13.6875 15.375L13.6875 29.25M30.1875 10.875V24.75M19.6875 13.5V21.375M24.1875 20.25L24.1875 28.875" stroke="white"></path>
<g filter="url(#filter0_d_4243_171569)">
<path d="M12 19.3125C12 18.7883 12 18.5262 12.0856 18.3195C12.1998 18.0438 12.4188 17.8248 12.6945 17.7106C12.9012 17.625 13.1633 17.625 13.6875 17.625C14.2117 17.625 14.4738 17.625 14.6805 17.7106C14.9562 17.8248 15.1752 18.0438 15.2894 18.3195C15.375 18.5262 15.375 18.7883 15.375 19.3125V24.9375C15.375 25.4617 15.375 25.7238 15.2894 25.9305C15.1752 26.2062 14.9562 26.4252 14.6805 26.5394C14.4738 26.625 14.2117 26.625 13.6875 26.625C13.1633 26.625 12.9012 26.625 12.6945 26.5394C12.4188 26.4252 12.1998 26.2062 12.0856 25.9305C12 25.7238 12 25.4617 12 24.9375V19.3125Z" fill="#FFE8B3"></path>
<path d="M28.5 14.8125C28.5 14.2883 28.5 14.0262 28.5856 13.8195C28.6998 13.5438 28.9188 13.3248 29.1945 13.2106C29.4012 13.125 29.6633 13.125 30.1875 13.125C30.7117 13.125 30.9738 13.125 31.1805 13.2106C31.4562 13.3248 31.6752 13.5438 31.7894 13.8195C31.875 14.0262 31.875 14.2883 31.875 14.8125V20.4375C31.875 20.9617 31.875 21.2238 31.7894 21.4305C31.6752 21.7062 31.4562 21.9252 31.1805 22.0394C30.9738 22.125 30.7117 22.125 30.1875 22.125C29.6633 22.125 29.4012 22.125 29.1945 22.0394C28.9188 21.9252 28.6998 21.7062 28.5856 21.4305C28.5 21.2238 28.5 20.9617 28.5 20.4375V14.8125Z" fill="#FFE8B3"></path>
<path d="M18 16.7686C18 16.2444 18 15.9823 18.0856 15.7756C18.1998 15.4999 18.4188 15.2809 18.6945 15.1668C18.9012 15.0811 19.1633 15.0811 19.6875 15.0811C20.2117 15.0811 20.4738 15.0811 20.6805 15.1668C20.9562 15.2809 21.1752 15.4999 21.2894 15.7756C21.375 15.9823 21.375 16.2444 21.375 16.7686V19.7179C21.375 20.2421 21.375 20.5042 21.2894 20.711C21.1752 20.9866 20.9562 21.2056 20.6805 21.3198C20.4738 21.4054 20.2117 21.4054 19.6875 21.4054C19.1633 21.4054 18.9012 21.4054 18.6945 21.3198C18.4188 21.2056 18.1998 20.9866 18.0856 20.711C18 20.5042 18 20.2421 18 19.7179V16.7686Z" fill="#FFE8B3"></path>
<path d="M22.5 21.9375C22.5 21.4133 22.5 21.1512 22.5856 20.9445C22.6998 20.6688 22.9188 20.4498 23.1945 20.3356C23.4012 20.25 23.6633 20.25 24.1875 20.25C24.7117 20.25 24.9738 20.25 25.1805 20.3356C25.4562 20.4498 25.6752 20.6688 25.7894 20.9445C25.875 21.1512 25.875 21.4133 25.875 21.9375V24.8868C25.875 25.411 25.875 25.6731 25.7894 25.8798C25.6752 26.1555 25.4562 26.3745 25.1805 26.4887C24.9738 26.5743 24.7117 26.5743 24.1875 26.5743C23.6633 26.5743 23.4012 26.5743 23.1945 26.4887C22.9188 26.3745 22.6998 26.1555 22.5856 25.8798C22.5 25.6731 22.5 25.411 22.5 24.8868V21.9375Z" fill="#FFE8B3"></path>
</g>
<path d="M32.6764 36.0155C32.5302 36.0155 32.3839 35.9817 32.2489 35.8917L28.7614 33.8105C27.8952 33.293 27.2539 32.1567 27.2539 31.1555V26.543C27.2539 26.0817 27.6364 25.6992 28.0977 25.6992C28.5589 25.6992 28.9414 26.0817 28.9414 26.543V31.1555C28.9414 31.5605 29.2789 32.1567 29.6277 32.3592L33.1152 34.4405C33.5202 34.6767 33.6439 35.1942 33.4077 35.5992C33.2389 35.8692 32.9577 36.0155 32.6764 36.0155Z" fill="url(#paint1_linear_4243_171569)"></path>
<path d="M30.375 40.5C36.5882 40.5 41.625 35.4632 41.625 29.25C41.625 23.0368 36.5882 18 30.375 18C24.1618 18 19.125 23.0368 19.125 29.25C19.125 35.4632 24.1618 40.5 30.375 40.5Z" fill="#FFDC8A"></path>
<path d="M34.5514 33.6717C34.4052 33.6717 34.2589 33.638 34.1239 33.548L30.6364 31.4667C29.7702 30.9492 29.1289 29.813 29.1289 28.8117V24.1992C29.1289 23.738 29.5114 23.3555 29.9727 23.3555C30.4339 23.3555 30.8164 23.738 30.8164 24.1992V28.8117C30.8164 29.2167 31.1539 29.813 31.5027 30.0155L34.9902 32.0967C35.3952 32.333 35.5189 32.8505 35.2827 33.2555C35.1139 33.5255 34.8327 33.6717 34.5514 33.6717Z" fill="url(#paint2_linear_4243_171569)"></path>
<defs>
<filter id="filter0_d_4243_171569" x="7" y="10.125" width="29.875" height="23.5" filterUnits="userSpaceOnUse" color-interpolation-filters="sRGB">
<feFlood flood-opacity="0" result="BackgroundImageFix"></feFlood>
<feColorMatrix in="SourceAlpha" type="matrix" values="0 0 0 0 0 0 0 0 0 0 0 0 0 0 0 0 0 0 127 0" result="hardAlpha"></feColorMatrix>
<feOffset dy="2"></feOffset>
<feGaussianBlur stdDeviation="2.5"></feGaussianBlur>
<feComposite in2="hardAlpha" operator="out"></feComposite>
<feColorMatrix type="matrix" values="0 0 0 0 0 0 0 0 0 0 0 0 0 0 0 0 0 0 0.1 0"></feColorMatrix>
<feBlend mode="normal" in2="BackgroundImageFix" result="effect1_dropShadow_4243_171569"></feBlend>
<feBlend mode="normal" in="SourceGraphic" in2="effect1_dropShadow_4243_171569" result="shape"></feBlend>
</filter>
<linearGradient id="paint0_linear_4243_171569" x1="6.30412" y1="8.29092" x2="19.0633" y2="41.5371" gradientUnits="userSpaceOnUse">
<stop stop-color="#FFC700"></stop>
<stop offset="1" stop-color="#FB7400"></stop>
</linearGradient>
<linearGradient id="paint1_linear_4243_171569" x1="27.3127" y1="25.8315" x2="32.7861" y2="34.5082" gradientUnits="userSpaceOnUse">
<stop stop-color="#FFC700"></stop>
<stop offset="1" stop-color="#FB7400"></stop>
</linearGradient>
<linearGradient id="paint2_linear_4243_171569" x1="29.1877" y1="23.4877" x2="34.6611" y2="32.1644" gradientUnits="userSpaceOnUse">
<stop stop-color="#FFC700"></stop>
<stop offset="1" stop-color="#FB7400"></stop>
</linearGradient>
</defs>
</svg>