<?xml version="1.0" standalone="no"?>
<!DOCTYPE svg PUBLIC "-//W3C//DTD SVG 20010904//EN"
 "http://www.w3.org/TR/2001/REC-SVG-20010904/DTD/svg10.dtd">
<svg version="1.0" xmlns="http://www.w3.org/2000/svg"
 width="64.000000pt" height="64.000000pt" viewBox="0 0 64.000000 64.000000"
 preserveAspectRatio="xMidYMid meet">

<g transform="translate(0.000000,64.000000) scale(0.100000,-0.100000)"
fill="#000000" stroke="none">
<path d="M200 249 c0 -11 -5 -30 -11 -41 -10 -18 -9 -20 6 -15 10 5 33 -4 60
-23 24 -17 48 -30 54 -30 20 0 21 20 4 52 -16 32 -19 38 -22 56 0 4 -17 6 -36
4 -21 -3 -35 0 -35 7 0 6 -4 11 -10 11 -5 0 -10 -9 -10 -21z"/>
</g>
</svg>
