<svg width="38" height="38" viewBox="0 0 49 48" fill="none" xmlns="http://www.w3.org/2000/svg">
<path d="M33.4212 7.91573V4.80458C33.4212 3.98691 32.7432 3.30884 31.9255 3.30884C31.1078 3.30884 30.4297 3.98691 30.4297 4.80458V7.79608H17.4666V4.80458C17.4666 3.98691 16.7885 3.30884 15.9709 3.30884C15.1532 3.30884 14.4751 3.98691 14.4751 4.80458V7.91573C9.09042 8.41431 6.47785 11.6252 6.07899 16.3916C6.0391 16.97 6.51774 17.4486 7.07615 17.4486H40.8202C41.3985 17.4486 41.8772 16.95 41.8173 16.3916C41.4185 11.6252 38.8059 8.41431 33.4212 7.91573Z" fill="url(#paint0_linear_4243_171598)"></path>
<path d="M39.9031 20.4397C41 20.4397 41.8974 21.3371 41.8974 22.434V34.7191C41.8974 40.7021 38.9059 44.6907 31.9258 44.6907H15.9712C8.991 44.6907 5.99951 40.7021 5.99951 34.7191V22.434C5.99951 21.3371 6.89696 20.4397 7.99384 20.4397H39.9031Z" fill="url(#paint1_linear_4243_171598)"></path>
<g filter="url(#filter0_d_4243_171598)">
<path d="M16.9665 30.7305C16.448 30.7305 15.9294 30.5111 15.5505 30.1522C15.1915 29.7732 14.9722 29.2547 14.9722 28.7362C14.9722 28.2177 15.1915 27.6992 15.5505 27.3203C16.1089 26.7618 16.9864 26.5823 17.7243 26.9014C17.9836 27.0011 18.203 27.1408 18.3825 27.3203C18.7414 27.6992 18.9608 28.2177 18.9608 28.7362C18.9608 29.2547 18.7414 29.7732 18.3825 30.1522C18.0035 30.5111 17.485 30.7305 16.9665 30.7305Z" fill="#FFE8B3"></path>
</g>
<g filter="url(#filter1_d_4243_171598)">
<path d="M23.946 30.7305C23.4275 30.7305 22.9089 30.5111 22.53 30.1522C22.171 29.7732 21.9517 29.2547 21.9517 28.7362C21.9517 28.2177 22.171 27.6992 22.53 27.3203C22.7095 27.1408 22.9289 27.0011 23.1881 26.9014C23.926 26.5823 24.8035 26.7618 25.362 27.3203C25.7209 27.6992 25.9403 28.2177 25.9403 28.7362C25.9403 29.2547 25.7209 29.7732 25.362 30.1522C25.2622 30.2319 25.1625 30.3117 25.0628 30.3915C24.9432 30.4712 24.8235 30.5311 24.7038 30.571C24.5842 30.6308 24.4645 30.6707 24.3449 30.6907C24.2053 30.7106 24.0856 30.7305 23.946 30.7305Z" fill="#FFE8B3"></path>
</g>
<g filter="url(#filter2_d_4243_171598)">
<path d="M30.9279 30.7308C30.4094 30.7308 29.8909 30.5114 29.512 30.1524C29.153 29.7735 28.9336 29.255 28.9336 28.7365C28.9336 28.218 29.153 27.6994 29.512 27.3205C29.7114 27.141 29.9108 27.0014 30.1701 26.9017C30.5291 26.7421 30.9279 26.7022 31.3268 26.782C31.4464 26.802 31.5661 26.8418 31.6858 26.9017C31.8054 26.9416 31.9251 27.0014 32.0447 27.0812C32.1445 27.161 32.2442 27.2407 32.3439 27.3205C32.7029 27.6994 32.9223 28.218 32.9223 28.7365C32.9223 29.255 32.7029 29.7735 32.3439 30.1524C32.2442 30.2322 32.1445 30.312 32.0447 30.3917C31.9251 30.4715 31.8054 30.5314 31.6858 30.5713C31.5661 30.6311 31.4464 30.671 31.3268 30.6909C31.1872 30.7109 31.0476 30.7308 30.9279 30.7308Z" fill="#FFE8B3"></path>
</g>
<g filter="url(#filter3_d_4243_171598)">
<path d="M16.9665 37.711C16.7072 37.711 16.448 37.6512 16.2086 37.5515C15.9494 37.4518 15.75 37.3121 15.5505 37.1327C15.1915 36.7537 14.9722 36.2352 14.9722 35.7167C14.9722 35.1982 15.1915 34.6797 15.5505 34.3007C15.75 34.1213 15.9494 33.9816 16.2086 33.8819C16.5676 33.7223 16.9665 33.6825 17.3654 33.7622C17.485 33.7822 17.6047 33.8221 17.7243 33.8819C17.844 33.9218 17.9637 33.9817 18.0833 34.0614C18.183 34.1412 18.2828 34.221 18.3825 34.3007C18.7414 34.6797 18.9608 35.1982 18.9608 35.7167C18.9608 36.2352 18.7414 36.7537 18.3825 37.1327C18.2828 37.2124 18.183 37.3121 18.0833 37.372C17.9637 37.4517 17.844 37.5116 17.7243 37.5515C17.6047 37.6113 17.485 37.6512 17.3654 37.6712C17.2258 37.6911 17.1061 37.711 16.9665 37.711Z" fill="#FFE8B3"></path>
</g>
<g filter="url(#filter4_d_4243_171598)">
<path d="M23.946 37.7111C23.4275 37.7111 22.9089 37.4917 22.53 37.1327C22.171 36.7538 21.9517 36.2353 21.9517 35.7168C21.9517 35.1982 22.171 34.6797 22.53 34.3008C23.2679 33.5629 24.6241 33.5629 25.362 34.3008C25.7209 34.6797 25.9403 35.1982 25.9403 35.7168C25.9403 36.2353 25.7209 36.7538 25.362 37.1327C24.983 37.4917 24.4645 37.7111 23.946 37.7111Z" fill="#FFE8B3"></path>
</g>
<path d="M30.9279 37.7111C30.4094 37.7111 29.8909 37.4917 29.512 37.1327C29.153 36.7538 28.9336 36.2353 28.9336 35.7168C28.9336 35.1982 29.153 34.6797 29.512 34.3008C30.2499 33.5629 31.606 33.5629 32.3439 34.3008C32.7029 34.6797 32.9223 35.1982 32.9223 35.7168C32.9223 36.2353 32.7029 36.7538 32.3439 37.1327C31.965 37.4917 31.4464 37.7111 30.9279 37.7111Z" fill="#F6F6F6"></path>
<path fill-rule="evenodd" clip-rule="evenodd" d="M38.7386 18.0882C40.8009 18.0882 42.6309 19.3209 43.3821 21.231C44.1196 23.1546 43.6143 25.2814 42.0846 26.6631L36.8392 31.3896L42.0846 36.116C43.6143 37.4977 44.1196 39.6245 43.3821 41.5481C42.6309 43.4582 40.8009 44.6909 38.7386 44.6909H30.6809C28.6186 44.6909 26.7885 43.4582 26.0374 41.5481C25.2999 39.6245 25.8052 37.4977 27.3485 36.116L32.5939 31.3896L27.3485 26.6631C25.8052 25.2814 25.2999 23.1546 26.0374 21.231C26.7885 19.3209 28.6186 18.0882 30.6809 18.0882H38.7386ZM32.2241 25.173H37.1954C37.7007 25.173 38.124 24.7531 38.124 24.2519C38.124 23.7506 37.7143 23.3307 37.1954 23.3307H32.2241C31.7188 23.3307 31.2954 23.7506 31.2954 24.2519C31.2954 24.7531 31.7051 25.173 32.2241 25.173ZM32.2241 37.6061H37.1954C37.7007 37.6061 38.124 38.026 38.124 38.5272C38.124 39.0285 37.7143 39.4484 37.1954 39.4484H32.2241C31.7188 39.4484 31.2954 39.0285 31.2954 38.5272C31.2954 38.026 31.7051 37.6061 32.2241 37.6061Z" fill="#FFE8B3"></path>
<defs>
<filter id="filter0_d_4243_171598" x="7.97217" y="22.7441" width="13.9888" height="13.9865" filterUnits="userSpaceOnUse" color-interpolation-filters="sRGB">
<feFlood flood-opacity="0" result="BackgroundImageFix"></feFlood>
<feColorMatrix in="SourceAlpha" type="matrix" values="0 0 0 0 0 0 0 0 0 0 0 0 0 0 0 0 0 0 127 0" result="hardAlpha"></feColorMatrix>
<feOffset dx="-2" dy="1"></feOffset>
<feGaussianBlur stdDeviation="2.5"></feGaussianBlur>
<feComposite in2="hardAlpha" operator="out"></feComposite>
<feColorMatrix type="matrix" values="0 0 0 0 0 0 0 0 0 0 0 0 0 0 0 0 0 0 0.15 0"></feColorMatrix>
<feBlend mode="normal" in2="BackgroundImageFix" result="effect1_dropShadow_4243_171598"></feBlend>
<feBlend mode="normal" in="SourceGraphic" in2="effect1_dropShadow_4243_171598" result="shape"></feBlend>
</filter>
<filter id="filter1_d_4243_171598" x="14.9517" y="22.7441" width="13.9888" height="13.9865" filterUnits="userSpaceOnUse" color-interpolation-filters="sRGB">
<feFlood flood-opacity="0" result="BackgroundImageFix"></feFlood>
<feColorMatrix in="SourceAlpha" type="matrix" values="0 0 0 0 0 0 0 0 0 0 0 0 0 0 0 0 0 0 127 0" result="hardAlpha"></feColorMatrix>
<feOffset dx="-2" dy="1"></feOffset>
<feGaussianBlur stdDeviation="2.5"></feGaussianBlur>
<feComposite in2="hardAlpha" operator="out"></feComposite>
<feColorMatrix type="matrix" values="0 0 0 0 0 0 0 0 0 0 0 0 0 0 0 0 0 0 0.15 0"></feColorMatrix>
<feBlend mode="normal" in2="BackgroundImageFix" result="effect1_dropShadow_4243_171598"></feBlend>
<feBlend mode="normal" in="SourceGraphic" in2="effect1_dropShadow_4243_171598" result="shape"></feBlend>
</filter>
<filter id="filter2_d_4243_171598" x="21.9336" y="22.7421" width="13.9888" height="13.9887" filterUnits="userSpaceOnUse" color-interpolation-filters="sRGB">
<feFlood flood-opacity="0" result="BackgroundImageFix"></feFlood>
<feColorMatrix in="SourceAlpha" type="matrix" values="0 0 0 0 0 0 0 0 0 0 0 0 0 0 0 0 0 0 127 0" result="hardAlpha"></feColorMatrix>
<feOffset dx="-2" dy="1"></feOffset>
<feGaussianBlur stdDeviation="2.5"></feGaussianBlur>
<feComposite in2="hardAlpha" operator="out"></feComposite>
<feColorMatrix type="matrix" values="0 0 0 0 0 0 0 0 0 0 0 0 0 0 0 0 0 0 0.15 0"></feColorMatrix>
<feBlend mode="normal" in2="BackgroundImageFix" result="effect1_dropShadow_4243_171598"></feBlend>
<feBlend mode="normal" in="SourceGraphic" in2="effect1_dropShadow_4243_171598" result="shape"></feBlend>
</filter>
<filter id="filter3_d_4243_171598" x="7.97217" y="29.7224" width="13.9888" height="13.9887" filterUnits="userSpaceOnUse" color-interpolation-filters="sRGB">
<feFlood flood-opacity="0" result="BackgroundImageFix"></feFlood>
<feColorMatrix in="SourceAlpha" type="matrix" values="0 0 0 0 0 0 0 0 0 0 0 0 0 0 0 0 0 0 127 0" result="hardAlpha"></feColorMatrix>
<feOffset dx="-2" dy="1"></feOffset>
<feGaussianBlur stdDeviation="2.5"></feGaussianBlur>
<feComposite in2="hardAlpha" operator="out"></feComposite>
<feColorMatrix type="matrix" values="0 0 0 0 0 0 0 0 0 0 0 0 0 0 0 0 0 0 0.15 0"></feColorMatrix>
<feBlend mode="normal" in2="BackgroundImageFix" result="effect1_dropShadow_4243_171598"></feBlend>
<feBlend mode="normal" in="SourceGraphic" in2="effect1_dropShadow_4243_171598" result="shape"></feBlend>
</filter>
<filter id="filter4_d_4243_171598" x="14.9517" y="29.7474" width="13.9888" height="13.9637" filterUnits="userSpaceOnUse" color-interpolation-filters="sRGB">
<feFlood flood-opacity="0" result="BackgroundImageFix"></feFlood>
<feColorMatrix in="SourceAlpha" type="matrix" values="0 0 0 0 0 0 0 0 0 0 0 0 0 0 0 0 0 0 127 0" result="hardAlpha"></feColorMatrix>
<feOffset dx="-2" dy="1"></feOffset>
<feGaussianBlur stdDeviation="2.5"></feGaussianBlur>
<feComposite in2="hardAlpha" operator="out"></feComposite>
<feColorMatrix type="matrix" values="0 0 0 0 0 0 0 0 0 0 0 0 0 0 0 0 0 0 0.15 0"></feColorMatrix>
<feBlend mode="normal" in2="BackgroundImageFix" result="effect1_dropShadow_4243_171598"></feBlend>
<feBlend mode="normal" in="SourceGraphic" in2="effect1_dropShadow_4243_171598" result="shape"></feBlend>
</filter>
<linearGradient id="paint0_linear_4243_171598" x1="6.41193" y1="3.49012" x2="8.87765" y2="19.7409" gradientUnits="userSpaceOnUse">
<stop stop-color="#FFC700"></stop>
<stop offset="1" stop-color="#FB7400"></stop>
</linearGradient>
<linearGradient id="paint1_linear_4243_171598" x1="6.33621" y1="20.7506" x2="13.2599" y2="47.4697" gradientUnits="userSpaceOnUse">
<stop stop-color="#FFC700"></stop>
<stop offset="1" stop-color="#FB7400"></stop>
</linearGradient>
</defs>
</svg>