<svg width="40" height="40" viewBox="0 0 40 40" fill="none" xmlns="http://www.w3.org/2000/svg">
<g clip-path="url(#clip0_11255_66168)">
<path d="M17.6935 19.6394C21.8281 19.6394 25.1799 16.2876 25.1799 12.1529C25.1799 8.01829 21.8281 4.6665 17.6935 4.6665C13.5588 4.6665 10.207 8.01829 10.207 12.1529C10.207 16.2876 13.5588 19.6394 17.6935 19.6394Z" fill="url(#paint0_linear_11255_66168)"></path>
<path d="M17.6734 21.0508C10.1825 21.0508 4.08203 26.0554 4.08203 32.2218C4.08203 32.6388 4.41097 32.9665 4.82963 32.9665H30.5172C30.9358 32.9665 31.2648 32.6388 31.2648 32.2218C31.2648 26.0554 25.1643 21.0508 17.6734 21.0508Z" fill="url(#paint1_linear_11255_66168)"></path>
<g filter="url(#filter0_d_11255_66168)">
<path d="M17.1167 23.176L16.7202 22.6605C16.2143 22.0029 16.6831 21.0508 17.5128 21.0508H18.2663C19.0729 21.0508 19.5476 21.9568 19.0885 22.62L18.7316 23.1355C18.3459 23.6925 17.5298 23.713 17.1167 23.176Z" fill="#FFE8B3"></path>
</g>
<g filter="url(#filter1_d_11255_66168)">
<path d="M16.945 27.2899L15.71 32.5924C15.6558 32.8253 15.6868 33.0699 15.7974 33.2819L17.0362 35.6556C17.418 36.3873 18.4717 36.3676 18.8259 35.6222L19.9491 33.2591C20.0433 33.0608 20.0697 32.837 20.0241 32.6223L18.8972 27.3092C18.6753 26.2632 17.1876 26.2484 16.945 27.2899Z" fill="#FFE8B3"></path>
</g>
<circle cx="28.9203" cy="27.1942" r="1.53601" fill="url(#paint2_linear_11255_66168)"></circle>
<circle cx="28.9203" cy="27.1942" r="1.53601" fill="#710000" fill-opacity="0.4"></circle>
<path d="M35.0042 26.3112C34.9681 26.332 34.9319 26.3529 34.8958 26.3737C33.6088 27.0955 32.1845 27.5814 30.7095 27.8174C30.6517 28.4837 30.348 29.2472 28.7646 29.2472C27.1812 29.2472 26.8775 28.4907 26.8197 27.8313C25.4387 27.623 24.0795 27.1858 22.8431 26.5264C22.7347 26.4708 22.6262 26.4153 22.525 26.3529C22.2647 26.214 22.0189 26.0613 21.7803 25.9086C21.7658 25.9017 21.7514 25.8878 21.7441 25.8809L22.1852 30.3994C22.337 31.7807 22.9299 33.2035 26.1111 33.2035L31.6205 33.2035C34.8018 33.2035 35.3946 31.7807 35.5465 30.3925L36.002 25.6865C35.9947 25.7004 35.9803 25.7143 35.9658 25.7212C35.6549 25.9364 35.3368 26.1377 35.0042 26.3112Z" fill="url(#paint3_linear_11255_66168)"></path>
<path d="M35.0042 26.3112C34.9681 26.332 34.9319 26.3529 34.8958 26.3737C33.6088 27.0955 32.1845 27.5814 30.7095 27.8174C30.6517 28.4837 30.348 29.2472 28.7646 29.2472C27.1812 29.2472 26.8775 28.4907 26.8197 27.8313C25.4387 27.623 24.0795 27.1858 22.8431 26.5264C22.7347 26.4708 22.6262 26.4153 22.525 26.3529C22.2647 26.214 22.0189 26.0613 21.7803 25.9086C21.7658 25.9017 21.7514 25.8878 21.7441 25.8809L22.1852 30.3994C22.337 31.7807 22.9299 33.2035 26.1111 33.2035L31.6205 33.2035C34.8018 33.2035 35.3946 31.7807 35.5465 30.3925L36.002 25.6865C35.9947 25.7004 35.9803 25.7143 35.9658 25.7212C35.6549 25.9364 35.3368 26.1377 35.0042 26.3112Z" fill="#710000" fill-opacity="0.4"></path>
<path d="M35.4291 22.6187C34.8146 21.9662 33.7879 21.64 32.2985 21.64L32.1527 21.64C32.1374 21.64 32.125 21.6276 32.125 21.6122C32.125 20.4462 32.125 19.0024 29.4064 19.0024L28.3075 19.0024C25.5889 19.0024 25.5889 20.4531 25.5889 21.6122C25.5889 21.6314 25.5734 21.6469 25.5542 21.6469L25.4154 21.6469C23.9188 21.6469 22.8993 21.9732 22.2848 22.6256C21.569 23.3891 21.5907 24.4164 21.663 25.1174L21.6702 25.166L21.738 25.8492C21.7409 25.8786 21.752 25.9098 21.7786 25.9225C22.0172 26.0752 22.2631 26.2279 22.5234 26.3668C22.6246 26.4292 22.733 26.4848 22.8415 26.5403C23.8501 27.0725 24.9404 27.4616 26.0577 27.7037C26.5028 27.8002 26.8008 28.1923 27.0433 28.5779C27.2847 28.9619 27.7716 29.2611 28.763 29.2611C29.7484 29.2611 30.2409 28.9681 30.4846 28.5845C30.7339 28.1922 31.0339 27.785 31.4877 27.6847C32.6839 27.4202 33.8355 26.9814 34.8941 26.3876C34.9375 26.3668 34.9664 26.3459 35.0026 26.3251C35.3304 26.1472 35.6371 25.9559 35.9366 25.7444C35.9453 25.7382 35.9547 25.7333 35.9631 25.7267C35.9814 25.7126 35.9872 25.6887 35.9899 25.6658L36.0148 25.4506L36.0509 25.1243C36.0582 25.0827 36.0582 25.048 36.0654 24.9994C36.1232 24.2984 36.1088 23.3405 35.4291 22.6187ZM29.645 27.3732C29.645 28.1089 29.645 28.22 28.7557 28.22C27.8664 28.22 27.8664 28.0881 27.8664 27.3801C27.8664 26.8971 28.258 26.5056 28.741 26.5056L28.7774 26.5056C29.2566 26.5056 29.645 26.894 29.645 27.3732ZM26.6228 21.64L26.6228 21.6122C26.6228 20.4323 26.6228 19.995 28.3075 19.995L29.4064 19.995C31.0911 19.995 31.0911 20.4392 31.0911 21.6122C31.0911 21.6314 31.0755 21.6469 31.0564 21.6469L26.6298 21.6469C26.6259 21.6469 26.6228 21.6438 26.6228 21.64Z" fill="#FFE8B3"></path>
</g>
<defs>
<filter id="filter0_d_11255_66168" x="15.5107" y="20.0508" width="8.75732" height="8.51562" filterUnits="userSpaceOnUse" color-interpolation-filters="sRGB">
<feFlood flood-opacity="0" result="BackgroundImageFix"></feFlood>
<feColorMatrix in="SourceAlpha" type="matrix" values="0 0 0 0 0 0 0 0 0 0 0 0 0 0 0 0 0 0 127 0" result="hardAlpha"></feColorMatrix>
<feOffset dx="2" dy="2"></feOffset>
<feGaussianBlur stdDeviation="1.5"></feGaussianBlur>
<feComposite in2="hardAlpha" operator="out"></feComposite>
<feColorMatrix type="matrix" values="0 0 0 0 0 0 0 0 0 0 0 0 0 0 0 0 0 0 0.1 0"></feColorMatrix>
<feBlend mode="normal" in2="BackgroundImageFix" result="effect1_dropShadow_11255_66168"></feBlend>
<feBlend mode="normal" in="SourceGraphic" in2="effect1_dropShadow_11255_66168" result="shape"></feBlend>
</filter>
<filter id="filter1_d_11255_66168" x="14.6841" y="25.5166" width="10.3618" height="15.6763" filterUnits="userSpaceOnUse" color-interpolation-filters="sRGB">
<feFlood flood-opacity="0" result="BackgroundImageFix"></feFlood>
<feColorMatrix in="SourceAlpha" type="matrix" values="0 0 0 0 0 0 0 0 0 0 0 0 0 0 0 0 0 0 127 0" result="hardAlpha"></feColorMatrix>
<feOffset dx="2" dy="2"></feOffset>
<feGaussianBlur stdDeviation="1.5"></feGaussianBlur>
<feComposite in2="hardAlpha" operator="out"></feComposite>
<feColorMatrix type="matrix" values="0 0 0 0 0 0 0 0 0 0 0 0 0 0 0 0 0 0 0.1 0"></feColorMatrix>
<feBlend mode="normal" in2="BackgroundImageFix" result="effect1_dropShadow_11255_66168"></feBlend>
<feBlend mode="normal" in="SourceGraphic" in2="effect1_dropShadow_11255_66168" result="shape"></feBlend>
</filter>
<linearGradient id="paint0_linear_11255_66168" x1="10.3475" y1="4.85847" x2="16.234" y2="20.2049" gradientUnits="userSpaceOnUse">
<stop stop-color="#FFC700"></stop>
<stop offset="1" stop-color="#FB7400"></stop>
</linearGradient>
<linearGradient id="paint1_linear_11255_66168" x1="4.33699" y1="21.2035" x2="6.62789" y2="34.8283" gradientUnits="userSpaceOnUse">
<stop stop-color="#FFC700"></stop>
<stop offset="1" stop-color="#FB7400"></stop>
</linearGradient>
<linearGradient id="paint2_linear_11255_66168" x1="27.4131" y1="25.6976" x2="28.6208" y2="28.8463" gradientUnits="userSpaceOnUse">
<stop stop-color="#FFC700"></stop>
<stop offset="1" stop-color="#FB7400"></stop>
</linearGradient>
<linearGradient id="paint3_linear_11255_66168" x1="21.8779" y1="25.7829" x2="23.595" y2="34.2738" gradientUnits="userSpaceOnUse">
<stop stop-color="#FFC700"></stop>
<stop offset="1" stop-color="#FB7400"></stop>
</linearGradient>
<clipPath id="clip0_11255_66168">
<rect width="40" height="40" fill="white"></rect>
</clipPath>
</defs>
</svg>