<svg width="40" height="40" viewBox="0 0 40 40" fill="none" xmlns="http://www.w3.org/2000/svg">
<g clip-path="url(#clip0_11191_167163)">
<g filter="url(#filter0_d_11191_167163)">
<path fill-rule="evenodd" clip-rule="evenodd" d="M17.4062 11.219V16.3752H23.5938V11.219H26.6875L20.5 4.90771L14.3125 11.219H17.4062ZM25.6562 20.5C25.6562 19.3609 24.7328 18.4375 23.5938 18.4375H17.4062C16.2672 18.4375 15.3438 19.3609 15.3438 20.5V22.5625C15.3438 23.7016 16.2672 24.625 17.4062 24.625H23.5938C24.7328 24.625 25.6562 23.7016 25.6562 22.5625V20.5ZM34.9375 22.5625H28.75C27.6109 22.5625 26.6875 23.4859 26.6875 24.625V26.6875C26.6875 27.8266 27.6109 28.75 28.75 28.75H34.9375C36.0766 28.75 37 27.8266 37 26.6875V24.625C37 23.4859 36.0766 22.5625 34.9375 22.5625ZM26.6875 34.3809V34.9377C26.6891 35.4843 26.9069 36.0079 27.2934 36.3944C27.6798 36.7808 28.2035 36.9986 28.75 37.0002H34.9375C35.484 36.9986 36.0077 36.7808 36.3941 36.3944C36.7806 36.0079 36.9984 35.4843 37 34.9377V34.3809C36.3735 34.7449 35.662 34.937 34.9375 34.9377H28.75C28.0255 34.937 27.314 34.7449 26.6875 34.3809ZM26.6875 30.8127V30.2559C27.314 30.6199 28.0255 30.812 28.75 30.8127H34.9375C35.662 30.812 36.3735 30.6199 37 30.2559V30.8127C36.9984 31.3593 36.7806 31.8829 36.3941 32.2694C36.0077 32.6558 35.484 32.8736 34.9375 32.8752H28.75C28.2035 32.8736 27.6798 32.6558 27.2934 32.2694C26.9069 31.8829 26.6891 31.3593 26.6875 30.8127ZM14.3125 34.3809V34.9377C14.3109 35.4843 14.0931 36.0079 13.7066 36.3944C13.3202 36.7808 12.7965 36.9986 12.25 37.0002H6.0625C5.51598 36.9986 4.99231 36.7808 4.60587 36.3944C4.21942 36.0079 4.00161 35.4843 4 34.9377V34.3809C4.62647 34.7449 5.33796 34.937 6.0625 34.9377H12.25C12.9745 34.937 13.686 34.7449 14.3125 34.3809ZM25.6562 34.9377V34.3809C25.0298 34.7449 24.3183 34.937 23.5938 34.9377H17.4062C16.6817 34.937 15.9702 34.7449 15.3438 34.3809V34.9377C15.3454 35.4843 15.5632 36.0079 15.9496 36.3944C16.3361 36.7808 16.8597 36.9986 17.4062 37.0002H23.5938C24.1403 36.9986 24.6639 36.7808 25.0504 36.3944C25.4368 36.0079 25.6546 35.4843 25.6562 34.9377ZM25.6562 30.2559V30.8127C25.6546 31.3593 25.4368 31.8829 25.0504 32.2694C24.6639 32.6558 24.1403 32.8736 23.5938 32.8752H17.4062C16.8597 32.8736 16.3361 32.6558 15.9496 32.2694C15.5632 31.8829 15.3454 31.3593 15.3438 30.8127V30.2559C15.9702 30.6199 16.6817 30.812 17.4062 30.8127H23.5938C24.3183 30.812 25.0298 30.6199 25.6562 30.2559ZM25.6562 26.6877V26.1309C25.0298 26.4949 24.3183 26.687 23.5938 26.6877H17.4062C16.6817 26.687 15.9702 26.4949 15.3438 26.1309V26.6877C15.3454 27.2343 15.5632 27.7579 15.9496 28.1444C16.3361 28.5308 16.8597 28.7486 17.4062 28.7502H23.5938C24.1403 28.7486 24.6639 28.5308 25.0504 28.1444C25.4368 27.7579 25.6546 27.2343 25.6562 26.6877ZM6.0625 22.5625H12.25C13.3891 22.5625 14.3125 23.4859 14.3125 24.625V26.6875C14.3125 27.8266 13.3891 28.75 12.25 28.75H6.0625C4.92341 28.75 4 27.8266 4 26.6875V24.625C4 23.4859 4.92341 22.5625 6.0625 22.5625ZM14.3125 30.2559V30.8127C14.3109 31.3593 14.0931 31.8829 13.7066 32.2694C13.3202 32.6558 12.7965 32.8736 12.25 32.8752H6.0625C5.51598 32.8736 4.99231 32.6558 4.60587 32.2694C4.21942 31.8829 4.00161 31.3593 4 30.8127V30.2559C4.62647 30.6199 5.33796 30.812 6.0625 30.8127H12.25C12.9745 30.812 13.686 30.6199 14.3125 30.2559ZM29.7687 19.6944V16.7089H27.6948L31.8435 13.0552L35.9923 16.7089H33.9184V19.6944H29.7687ZM11.2309 16.7089V19.6944H7.08117V16.7089H5.00732L9.15604 13.0552L13.3048 16.7089H11.2309Z" fill="url(#paint0_linear_11191_167163)"></path>
</g>
</g>
<defs>
<filter id="filter0_d_11191_167163" x="-38.963" y="-20.8701" width="118.926" height="118.018" filterUnits="userSpaceOnUse" color-interpolation-filters="sRGB">
<feFlood flood-opacity="0" result="BackgroundImageFix"></feFlood>
<feColorMatrix in="SourceAlpha" type="matrix" values="0 0 0 0 0 0 0 0 0 0 0 0 0 0 0 0 0 0 127 0" result="hardAlpha"></feColorMatrix>
<feOffset dy="17.1852"></feOffset>
<feGaussianBlur stdDeviation="21.4815"></feGaussianBlur>
<feComposite in2="hardAlpha" operator="out"></feComposite>
<feColorMatrix type="matrix" values="0 0 0 0 0.439216 0 0 0 0 0.564706 0 0 0 0 0.690196 0 0 0 0.3 0"></feColorMatrix>
<feBlend mode="normal" in2="BackgroundImageFix" result="effect1_dropShadow_11191_167163"></feBlend>
<feBlend mode="normal" in="SourceGraphic" in2="effect1_dropShadow_11191_167163" result="shape"></feBlend>
</filter>
<linearGradient id="paint0_linear_11191_167163" x1="4.30952" y1="5.31916" x2="16.6656" y2="38.4428" gradientUnits="userSpaceOnUse">
<stop stop-color="#FFC700"></stop>
<stop offset="1" stop-color="#FB7400"></stop>
</linearGradient>
<clipPath id="clip0_11191_167163">
<rect width="40" height="40" fill="white"></rect>
</clipPath>
</defs>
</svg>