<svg width="40" height="40" viewBox="0 0 40 40" fill="none" xmlns="http://www.w3.org/2000/svg">
<g clip-path="url(#clip0_11255_66153)">
<g filter="url(#filter0_d_11255_66153)">
<path d="M33.0407 17.8965C32.9189 17.6665 32.9189 17.3918 33.0406 17.1619L33.4468 16.3946C34.0717 15.2141 33.7321 13.7262 32.6569 12.9337L31.958 12.4186C31.7486 12.2642 31.6294 12.0168 31.6393 11.7569L31.6724 10.8893C31.7232 9.55457 30.7717 8.36137 29.4591 8.11385L28.6059 7.95299C28.3502 7.90477 28.1356 7.73359 28.0317 7.49504L27.685 6.69906C27.1516 5.47446 25.7768 4.81213 24.4867 5.1588L23.6482 5.38407C23.397 5.45151 23.1292 5.39045 22.9322 5.22063L22.2745 4.65385C21.2627 3.78205 19.7365 3.78205 18.7246 4.65385L18.0668 5.22063C17.8697 5.39045 17.6021 5.45151 17.3509 5.38407L16.5124 5.1588C15.2222 4.81226 13.8474 5.47446 13.314 6.69906L12.9673 7.49511C12.8634 7.73359 12.6488 7.90477 12.3931 7.95299L11.5399 8.11385C10.2273 8.36137 9.27576 9.55457 9.32657 10.8893L9.35958 11.7569C9.3695 12.0168 9.25036 12.2642 9.04095 12.4186L8.34206 12.9337C7.26685 13.7262 6.92727 15.2141 7.55214 16.3947L7.95832 17.162C8.08005 17.3919 8.08005 17.6665 7.95832 17.8965L7.55214 18.6637C6.92727 19.8442 7.26685 21.3322 8.34206 22.1247L9.04089 22.6398C9.25036 22.7942 9.36944 23.0415 9.35951 23.3016L9.3265 24.1692C9.2757 25.5039 10.2273 26.6971 11.5399 26.9446L11.9874 27.029L12.0535 29.0957L16.8245 31.5199L18.8939 30.5383C19.3684 30.8848 19.9338 31.0585 20.4995 31.0585C21.0564 31.0585 21.6133 30.8904 22.0833 30.5545L23.7876 31.7133L28.5586 29.2793L28.9836 27.0342L29.4591 26.9445C30.7717 26.6971 31.7233 25.5039 31.6725 24.169L31.6394 23.3015C31.6295 23.0415 31.7486 22.7941 31.958 22.6398L32.6569 22.1247C33.7322 21.3322 34.0718 19.8443 33.4468 18.6637L33.0407 17.8965Z" fill="url(#paint0_linear_11255_66153)"></path>
</g>
<path d="M29.2029 17.529C29.2029 12.7297 25.2984 8.8252 20.4991 8.8252C15.6998 8.8252 11.7952 12.7297 11.7952 17.529C11.7952 22.3283 15.6998 26.2329 20.4991 26.2329C25.2984 26.2329 29.2029 22.3283 29.2029 17.529ZM24.8532 17.0261L23.3777 18.4643L23.726 20.4951C23.7882 20.8579 23.639 21.2246 23.3412 21.441C23.0461 21.6554 22.6516 21.6874 22.3228 21.5146L20.499 20.5558L18.6753 21.5146C18.3494 21.6859 17.9547 21.6574 17.6568 21.441C17.359 21.2246 17.2098 20.858 17.2721 20.4951L17.6204 18.4643L16.1449 17.0261C15.8813 16.7692 15.7864 16.3849 15.9002 16.0348C16.014 15.6847 16.3166 15.4295 16.6809 15.3766L18.72 15.0804L19.6318 13.2327C19.7947 12.9026 20.1309 12.6936 20.499 12.6936C20.8671 12.6936 21.2033 12.9025 21.3662 13.2326L22.2782 15.0803L24.3172 15.3765C24.6814 15.4295 24.9841 15.6847 25.0978 16.0347C25.2115 16.3848 25.1168 16.7692 24.8532 17.0261ZM18.0665 29.8376C17.8694 29.6677 17.6017 29.6067 17.3504 29.6741L16.512 29.8993C15.2219 30.246 13.847 29.5837 13.3136 28.3591L12.9669 27.5631C12.863 27.3245 12.6484 27.1534 12.3927 27.1051L11.9871 27.0287L8.9046 32.5987C8.73343 32.908 8.74471 33.2861 8.93394 33.5847C9.12317 33.8832 9.46049 34.055 9.81303 34.032L12.6437 33.8495L13.9056 36.4543C14.0634 36.78 14.3898 36.9903 14.7515 36.9995C14.7597 36.9997 14.7679 36.9998 14.7761 36.9998C15.1284 36.9998 15.4538 36.8079 15.6238 36.4979L18.8935 30.5381C18.8358 30.4959 18.7791 30.4516 18.7241 30.4043L18.0665 29.8376ZM32.0628 32.5987L28.9833 27.034L28.6055 27.1051C28.3499 27.1534 28.1352 27.3245 28.0314 27.5631L27.6847 28.3591C27.2467 29.3646 26.241 29.9909 25.1812 29.991C24.9504 29.991 24.7171 29.9613 24.4863 29.8993L23.6478 29.6741C23.3966 29.6067 23.1288 29.6677 22.9318 29.8376L22.2741 30.4043C22.2123 30.4576 22.1484 30.5075 22.083 30.5542L25.3436 36.4979C25.5137 36.808 25.8391 36.9998 26.1913 36.9998C26.1995 36.9998 26.2078 36.9998 26.216 36.9995C26.5777 36.9904 26.904 36.7801 27.0618 36.4544L28.3238 33.8496L31.1544 34.0321C31.5062 34.0551 31.8442 33.8834 32.0335 33.5847C32.2226 33.2861 32.2339 32.9081 32.0628 32.5987Z" fill="#FFE8B3"></path>
</g>
<defs>
<filter id="filter0_d_11255_66153" x="-35.7227" y="-21.7778" width="112.444" height="113.639" filterUnits="userSpaceOnUse" color-interpolation-filters="sRGB">
<feFlood flood-opacity="0" result="BackgroundImageFix"></feFlood>
<feColorMatrix in="SourceAlpha" type="matrix" values="0 0 0 0 0 0 0 0 0 0 0 0 0 0 0 0 0 0 127 0" result="hardAlpha"></feColorMatrix>
<feOffset dy="17.1852"></feOffset>
<feGaussianBlur stdDeviation="21.4815"></feGaussianBlur>
<feComposite in2="hardAlpha" operator="out"></feComposite>
<feColorMatrix type="matrix" values="0 0 0 0 0.439216 0 0 0 0 0.564706 0 0 0 0 0.690196 0 0 0 0.3 0"></feColorMatrix>
<feBlend mode="normal" in2="BackgroundImageFix" result="effect1_dropShadow_11255_66153"></feBlend>
<feBlend mode="normal" in="SourceGraphic" in2="effect1_dropShadow_11255_66153" result="shape"></feBlend>
</filter>
<linearGradient id="paint0_linear_11255_66153" x1="7.48896" y1="4.3553" x2="18.7422" y2="32.4282" gradientUnits="userSpaceOnUse">
<stop stop-color="#FFC700"></stop>
<stop offset="1" stop-color="#FB7400"></stop>
</linearGradient>
<clipPath id="clip0_11255_66153">
<rect width="40" height="40" fill="white"></rect>
</clipPath>
</defs>
</svg>