<?xml version="1.0" standalone="no"?>
<!DOCTYPE svg PUBLIC "-//W3C//DTD SVG 20010904//EN"
 "http://www.w3.org/TR/2001/REC-SVG-20010904/DTD/svg10.dtd">
<svg version="1.0" xmlns="http://www.w3.org/2000/svg"
 width="64.000000pt" height="64.000000pt" viewBox="0 0 64.000000 64.000000"
 preserveAspectRatio="xMidYMid meet">

<g transform="translate(0.000000,64.000000) scale(0.100000,-0.100000)"
fill="#000000" stroke="none">
<path d="M354 215 c2 -16 5 -38 5 -47 1 -16 12 -18 84 -18 93 0 107 8 107 56
0 32 0 32 -35 21 -19 -6 -35 -14 -35 -19 0 -11 -58 -10 -62 2 -1 5 -14 11 -28
12 -14 2 -28 8 -33 13 -4 6 -5 -3 -3 -20z"/>
<path d="M440 230 c0 -5 5 -10 10 -10 6 0 10 5 10 10 0 6 -4 10 -10 10 -5 0
-10 -4 -10 -10z"/>
</g>
</svg>
