<svg width="64" height="34" viewBox="0 0 64 34" fill="none" xmlns="http://www.w3.org/2000/svg">
<g clip-path="url(#clip0_876_98533)">
<path d="M25.6154 32.9577H12.842V13.7992H0V0.955566H25.6154V32.9577Z" fill="#929AA2"/>
<path d="M63.3971 0.968138C62.1518 3.92502 60.9647 6.74061 59.7796 9.55411C56.5988 17.099 53.4137 24.6419 50.2474 32.1951C50.0249 32.7271 49.8087 33.0346 49.1497 33.0304C44.6486 33.0013 40.1476 33.0159 35.6465 33.0117C35.4802 33.0117 35.3139 32.9806 35.0332 32.9515C35.1413 32.6149 35.2079 32.326 35.3201 32.058C39.5675 21.9759 43.8233 11.8959 48.0686 1.81178C48.289 1.29022 48.4491 0.86632 49.2037 0.874632C53.7048 0.91619 58.2058 0.895411 62.7069 0.897489C62.8732 0.897489 63.0395 0.928658 63.3971 0.96606V0.968138Z" fill="#929AA2"/>
<path d="M28.8965 6.79676C28.8965 3.42845 31.83 0.550525 35.3186 0.500655C38.8529 0.448707 41.8716 3.49286 41.8155 7.05442C41.7614 10.4643 38.8508 13.3131 35.3789 13.3526C31.805 13.3942 28.8965 10.4539 28.8965 6.79676Z" fill="#929AA2"/>
</g>
<defs>
<clipPath id="clip0_876_98533">
<rect width="64" height="33" fill="white" transform="translate(0 0.5)"/>
</clipPath>
</defs>
</svg>
